<?xml version="1.0" encoding="UTF-8" standalone="no"?>
<!-- Created with Inkscape (http://www.inkscape.org/) -->
<svg id="svg6332" xmlns:rdf="http://www.w3.org/1999/02/22-rdf-syntax-ns#" xmlns="http://www.w3.org/2000/svg" height="1e3" width="1e3" version="1.1" xmlns:cc="http://creativecommons.org/ns#" xmlns:dc="http://purl.org/dc/elements/1.1/" viewBox="0 0 1000 1000">
 <metadata id="metadata6337">
  <rdf:RDF>
   <cc:Work rdf:about="">
    <dc:format>image/svg+xml</dc:format>
    <dc:type rdf:resource="http://purl.org/dc/dcmitype/StillImage"/>
    <dc:title/>
   </cc:Work>
  </rdf:RDF>
 </metadata>
 <g id="layer3">
  <g id="g7394" stroke-linejoin="bevel" stroke="#f7a800" stroke-width="5" fill="none">
   <path id="path7404" d="m470 40l45.71 148.57 32.86-125.71z"/>
   <path id="path7406" d="m438.57 174.29l77.14 14.28-45.71-148.57z"/>
   <path id="path7412" d="m612.86 78.571l44.28 150 34.29-131.43z"/>
   <path id="path7414" d="m578.57 205.71l78.57 22.86-44.28-150z"/>
   <path id="path7416" d="m391.43 231.43l47.14-57.14-72.86-18.58z"/>
   <path id="path7418" d="m275.71 134.29l48.58 100 41.42-78.58z"/>
   <path id="path7420" d="m257.14 220l67.15 14.29-48.58-100z"/>
   <path id="path7422" d="m324.29 234.29l67.14-2.86-25.72-75.72z"/>
   <path id="path7426" d="m350 284.29l41.43-52.86-67.14 2.86z"/>
   <path id="path7428" d="m438.57 174.29l55.72 108.57 21.42-94.29z"/>
   <path id="path7430" d="m391.43 231.43l102.86 51.43-55.72-108.57z"/>
   <path id="path7432" d="m494.29 282.86l84.28-77.15-62.86-17.14z"/>
   <path id="path7434" d="m577.14 305.71l80-77.14-78.57-22.86z"/>
   <path id="path7436" d="m425.71 311.43l68.58-28.57-102.86-51.43z"/>
   <path id="path7438" d="m494.29 282.86l82.85 22.85 1.43-100z"/>
   <path id="path7440" d="m657.14 228.57l40 91.43 31.43-62.86z"/>
   <path id="path7444" d="m350 284.29l75.71 27.14-34.28-80z"/>
   <path id="path7446" d="m577.14 305.71l55.72 27.15 24.28-104.29z"/>
   <path id="path7448" d="m632.86 332.86l64.28-12.86-40-91.43z"/>
   <path id="path7450" d="m697.14 320l88.57-17.14-57.14-45.72z"/>
   <path id="path7454" d="m425.71 311.43l50 51.43 18.58-80z"/>
   <path id="path7458" d="m334.29 340l91.42-28.57-75.71-27.14z"/>
   <path id="path7462" d="m664.29 391.43l32.85-71.43-64.28 12.86z"/>
   <path id="path7464" d="m744.29 420l41.42-117.14-88.57 17.14z"/>
   <path id="path7466" d="m744.29 420l72.85-58.57-31.43-58.57z"/>
   <path id="path7468" d="m378.57 424.29l47.14-112.86-91.42 28.57z"/>
   <path id="path7470" d="m664.29 391.43l80 28.57-47.15-100z"/>
   <path id="path7472" d="m378.57 424.29l97.14-61.43-50-51.43z"/>
   <path id="path7474" d="m744.29 420l65.71 22.86 7.14-81.43z"/>
   <path id="path7476" d="m378.57 424.29l77.14 18.57 20-80z"/>
   <path id="path7478" d="m311.43 447.14l67.14-22.85-44.28-84.29z"/>
   <path id="path7490" d="m670 481.43l-5.71-90-27.15 57.14z"/>
   <path id="path7492" d="m670 481.43l74.29-61.43-80-28.57z"/>
   <path id="path7494" d="m764.29 505.71l45.71-62.85-65.71-22.86z"/>
   <path id="path7496" d="m455.71 442.86l87.15 61.43 17.14-41.43z"/>
   <path id="path7498" d="m670 481.43l94.29 24.28-20-85.71z"/>
   <path id="path7500" d="m378.57 424.29l55.72 95.71 21.42-77.14z"/>
   <path id="path7504" d="m717.14 528.57l47.15-22.86-94.29-24.28z"/>
   <path id="path7506" d="m455.71 442.86l58.58 95.71 28.57-34.28z"/>
   <path id="path7508" d="m434.29 520l80 18.57-58.58-95.71z"/>
   <path id="path7510" d="m311.43 447.14l122.86 72.86-55.72-95.71z"/>
   <path id="path7512" d="m587.14 568.57l-27.14-105.71-17.14 41.43z"/>
   <path id="path7514" d="m587.14 568.57l50-120-77.14 14.29z"/>
   <path id="path7516" d="m587.14 568.57l82.86-87.14-32.86-32.86z"/>
   <path id="path7518" d="m311.43 447.14l58.57 127.15 64.29-54.29z"/>
   <path id="path7520" d="m284.29 542.86l85.71 31.43-58.57-127.15z"/>
   <path id="path7522" d="m514.29 538.57l72.85 30-44.28-64.28z"/>
   <path id="path7526" d="m670 481.43l20 115.71 27.14-68.57z"/>
   <path id="path7528" d="m412.86 608.57l21.43-88.57-64.29 54.29z"/>
   <path id="path7530" d="m587.14 568.57l102.86 28.57-20-115.71z"/>
   <path id="path7534" d="m690 597.14l91.43-17.14-64.29-51.43z"/>
   <path id="path7536" d="m637.14 627.14l52.86-30-102.86-28.57z"/>
   <path id="path7546" d="m261.43 640l108.57-65.71-85.71-31.43z"/>
   <path id="path7550" d="m690 597.14l112.86 62.86-21.43-80z"/>
   <path id="path7552" d="m690 597.14l52.86 110 60-47.14z"/>
   <path id="path7554" d="m370 574.29l22.86 121.42 20-87.14z"/>
   <path id="path7556" d="m234.29 654.29l47.14 54.28-20-68.57z"/>
   <path id="path7560" d="m261.43 640l131.43 55.71-22.86-121.42z"/>
   <path id="path7572" d="m281.43 708.57l111.43-12.86-131.43-55.71z"/>
   <path id="path7574" d="m637.14 627.14l105.72 80-52.86-110z"/>
   <path id="path7576" d="m620 697.14l122.86 10-105.72-80z"/>
   <path id="path7578" d="m211.43 750l70-41.43-47.14-54.28z"/>
   <path id="path7580" d="m168.57 637.14l42.86 112.86 22.86-95.71z"/>
   <path id="path7582" d="m127.14 725.71l84.29 24.29-42.86-112.86z"/>
   <path id="path7584" d="m677.14 758.57l65.72-51.43-122.86-10z"/>
   <path id="path7586" d="m488.57 758.57l61.43-35.71-74.29-7.15z"/>
   <path id="path7588" d="m770 761.43l32.86-101.43-60 47.14z"/>
   <path id="path7590" d="m211.43 750l77.14 18.57-7.14-60z"/>
   <path id="path7592" d="m288.57 768.57l104.29-72.86-111.43 12.86z"/>
   <path id="path7594" d="m288.57 768.57l78.57 22.86 25.72-95.72z"/>
   <path id="path7596" d="m677.14 758.57l92.86 2.86-27.14-54.29z"/>
   <path id="path7600" d="m431.43 805.71l57.14-47.14-12.86-42.86z"/>
   <path id="path7602" d="m392.86 695.71l38.57 110 44.28-90z"/>
   <path id="path7604" d="m367.14 791.43l64.29 14.28-38.57-110z"/>
   <path id="path7606" d="m695.71 824.29l74.29-62.86-92.86-2.86z"/>
   <path id="path7608" d="m510 824.29l40-101.43-61.43 35.71z"/>
   <path id="path7610" d="m550 722.86l127.14 35.71-57.14-61.43z"/>
   <path id="path7612" d="m582.86 837.14l94.28-78.57-127.14-35.71z"/>
   <path id="path7614" d="m431.43 805.71l78.57 18.58-21.43-65.72z"/>
   <path id="path7616" d="m510 824.29l72.86 12.85-32.86-114.28z"/>
   <path id="path7618" d="m582.86 837.14l112.85-12.85-18.57-65.72z"/>
   <path id="path7622" d="m257.14 901.43l110-110-78.57-22.86z"/>
   <path id="path7624" d="m257.14 901.43l78.57 18.57 31.43-128.57z"/>
   <path id="path7630" d="m431.43 805.71l44.28 151.43 34.29-132.85z"/>
   <path id="path7632" d="m397.14 937.14l78.57 20-44.28-151.43z"/>
  </g>
 </g>
</svg>
