<?xml version="1.0" encoding="UTF-8" standalone="no"?>
<svg id="imgView" xml:space="preserve" height="1e3" viewBox="0 0 1438.8477 1438.8477" xmlns:dc="http://purl.org/dc/elements/1.1/" width="1e3" data-id="83467" version="1.1" fill="#000000" data-kw="cinema75" xmlns:cc="http://creativecommons.org/ns#" class="detail convertSvgInline replaced-svg" xmlns:rdf="http://www.w3.org/1999/02/22-rdf-syntax-ns#" xmlns="http://www.w3.org/2000/svg" y="0px" x="0px" display="block"><metadata id="metadata7464"><rdf:RDF><cc:Work rdf:about=""><dc:format>image/svg+xml</dc:format><dc:type rdf:resource="http://purl.org/dc/dcmitype/StillImage"/><dc:title/></cc:Work></rdf:RDF></metadata>
<g id="layer6"><g id="g8684" stroke-linejoin="bevel" stroke="#000" stroke-width="7.1942" fill="none"><path id="path8686" d="m629.08 127.72l121.87 146.5 112.1-95.73z"/><path id="path8688" d="m507.54 276.42l121.54-148.7-156.72 22.08z"/><path id="path8690" d="m507.54 276.42l116.93-3.86 4.61-144.84z"/><path id="path8692" d="m624.47 272.56l126.48 1.66-121.87-146.5z"/><path id="path8694" d="m785.27 311.88l77.78-133.39-112.1 95.73z"/><path id="path8696" d="m472.36 149.8l5.63 158.26 29.55-31.64z"/><path id="path8698" d="m284.74 233.67l193.25 74.39-5.63-158.26z"/><path id="path8700" d="m863.05 178.49l48.45 202.93 101.6-110.22z"/><path id="path8702" d="m356.74 381.05l121.25-72.99-193.25-74.39z"/><path id="path8704" d="m785.27 311.88l126.23 69.54-48.45-202.93z"/><path id="path8706" d="m911.5 381.42l39.84 8.97 61.76-119.19z"/><path id="path8708" d="m306.96 391.95l49.78-10.9-72-147.38z"/><path id="path8714" d="m161.13 361.69l145.83 30.26-22.22-158.28z"/><path id="path8720" d="m356.74 381.05l144.3 3.76-23.05-76.75z"/><path id="path8722" d="m785.27 311.88l68.95 127.07 57.28-57.53z"/><path id="path8724" d="m760.54 394.45l93.68 44.5-68.95-127.07z"/><path id="path8726" d="m415.88 443.75l85.16-58.94-144.3-3.76z"/><path id="path8732" d="m951.34 390.39l187.66 24.28-125.9-143.47z"/><path id="path8736" d="m1013.1 489.72l125.9-75.05-187.66-24.28z"/><path id="path8738" d="m161.13 361.69l81.15 138.96 64.68-108.7z"/><path id="path8746" d="m415.88 443.75l167.79 14.25-82.63-73.19z"/><path id="path8748" d="m760.54 394.45l71.61 152.66 22.07-108.16z"/><path id="path8752" d="m676.76 455.68l155.39 91.43-71.61-152.66z"/><path id="path8754" d="m427.02 546.92l156.65-88.92-167.79-14.25z"/><path id="path8756" d="m55.182 580.22l187.1-79.57-81.15-138.96z"/><path id="path8762" d="m1074.9 600.08l64.1-185.41-125.9 75.05z"/><path id="path8764" d="m629.08 608.91l47.68-153.23-93.09 2.32z"/><path id="path8766" d="m1074.9 600.08l128.1-19.86-64-165.55z"/><path id="path8768" d="m55.182 580.22l131.99 23.62 55.11-103.19z"/><path id="path8770" d="m565.06 630.98l64.02-22.07-45.41-150.91z"/><path id="path8772" d="m629.08 608.91l77.25 28.69-29.57-181.92z"/><path id="path8774" d="m427.02 546.92l138.04 84.06 18.61-172.98z"/><path id="path8778" d="m706.33 637.6l125.82-90.49-155.39-91.43z"/><path id="path8794" d="m55.182 580.22l132.11 52.48-0.12-28.86z"/><path id="path8796" d="m427.02 546.92l98.31 134.83 39.73-50.77z"/><path id="path8798" d="m382.48 628.7l142.85 53.05-98.31-134.83z"/><path id="path8800" d="m706.33 637.6l174.38-11.03-48.56-79.46z"/><path id="path8802" d="m739.44 699.41l141.27-72.84-174.38 11.03z"/><path id="path8804" d="m1059.5 648.64l143.5-68.42-128.1 19.86z"/><path id="path8806" d="m1059.5 648.64l158.9 114.78-15.4-183.2z"/><path id="path8808" d="m984.63 771.12l74.87-122.48-83.88 19.87z"/><path id="path8810" d="m202.92 790.57l74.86-126.9-90.49-30.97z"/><path id="path8812" d="m202.92 790.57l83.87-19.87-9.01-107.03z"/><path id="path8814" d="m286.79 770.7l95.69-142-104.7 34.97z"/><path id="path8816" d="m984.63 771.12l84.47 25.47-9.6-147.95z"/><path id="path8818" d="m879.93 806.09l95.69-137.58-94.91-41.94z"/><path id="path8820" d="m879.93 806.09l104.7-34.97-9.01-102.61z"/><path id="path8822" d="m286.79 770.7l94.92 41.94 0.77-183.94z"/><path id="path8824" d="m739.44 699.41l140.49 106.68 0.78-179.52z"/><path id="path8826" d="m1069.1 796.59l149.3-33.17-158.9-114.78z"/><path id="path8830" d="m381.71 812.64l143.62-130.89-142.85-53.05z"/><path id="path8834" d="m735.02 761.21l144.91 44.88-140.49-106.68z"/><path id="path8846" d="m381.71 812.64l152.45-40.39-8.83-90.5z"/><path id="path8848" d="m59.597 862.75l127.69-230.05-132.11-52.48z"/><path id="path8850" d="m59.597 862.75l143.32-72.18-15.63-157.87z"/><path id="path8852" d="m59.597 862.75l127.87-23.62 15.45-48.56z"/><path id="path8854" d="m1075.2 830.95l143.2-67.53-149.3 33.17z"/><path id="path8858" d="m735.02 761.21l100.37 126.66 44.54-81.78z"/><path id="path8860" d="m430.27 892.1l103.89-119.85-152.45 40.39z"/><path id="path8864" d="m677.64 820.81l157.75 67.06-100.37-126.66z"/><path id="path8868" d="m430.27 892.1l165.7-66.88-61.81-52.97z"/><path id="path8876" d="m1161 979.73l57.4-216.31-143.2 67.53z"/><path id="path8880" d="m595.97 825.22l82.77 153.78-1.1-158.19z"/><path id="path8882" d="m585.65 981.32l93.09-2.32-82.77-153.78z"/><path id="path8886" d="m678.74 979l156.65-91.13-157.75-67.06z"/><path id="path8888" d="m430.27 892.1l155.38 89.22 10.32-156.1z"/><path id="path8890" d="m1020.1 934.14l140.9 45.59-85.8-148.78z"/><path id="path8896" d="m678.74 979l167.79 12.04-11.14-103.17z"/><path id="path8898" d="m430.27 892.1l71.6 150.4 83.78-61.18z"/><path id="path8900" d="m408.19 1000.3l93.68 42.2-71.6-150.4z"/><path id="path8904" d="m59.597 862.75l189.67 86.74-61.8-110.36z"/><path id="path8908" d="m761.37 1052.2l85.16-61.16-167.79-12.04z"/><path id="path8914" d="m194.24 1116.6l116.83-67.8-61.8-99.31z"/><path id="path8916" d="m761.37 1052.2l144.3 1.5-59.14-62.66z"/><path id="path8918" d="m408.19 1000.3l68.95 124.8 24.73-82.6z"/><path id="path8920" d="m59.597 862.75l134.64 253.85 55.03-167.11z"/><path id="path8922" d="m955.45 1042.8l205.55-63.07-140.9-45.59z"/><path id="path8924" d="m351.18 1056.5l125.96 68.6-68.95-124.8z"/><path id="path8926" d="m784.29 1132.2l121.38-78.5-144.3-1.5z"/><path id="path8928" d="m1033 1151.9l128-172.17-205.55 63.07z"/><path id="path8952" d="m905.67 1053.7l127.33 98.2-77.55-109.1z"/><path id="path8954" d="m1033 1151.9l75.1 77.3 66.2-101.6z"/><path id="path8956" d="m1244.9 1231.4l81.7-81.7-152.3-22.1z"/><path id="path8958" d="m351.18 1056.5l48.34 203.6 77.62-135z"/><path id="path8960" d="m1326.6 1149.7l24.3 112.6 44.1-83.9z"/><path id="path8962" d="m905.67 1053.7l41.25 210.8 86.08-112.6z"/><path id="path8964" d="m399.52 1260.1l111.95-97.3-34.33-37.7z"/><path id="path8966" d="m1108.1 1229.2l136.8 2.2-70.6-103.8z"/><path id="path8968" d="m1244.9 1231.4l106 30.9-24.3-112.6z"/><path id="path8970" d="m784.29 1132.2l162.63 132.3-41.25-210.8z"/><path id="path8972" d="m311.07 1048.8l88.45 211.3-48.34-203.6z"/><path id="path8974" d="m194.24 1116.6l205.28 143.5-88.45-211.3z"/><path id="path8976" d="m801.24 1297.6l-16.95-165.4-29.42 28.4z"/><path id="path8978" d="m801.24 1297.6l145.68-33.1-162.63-132.3z"/><path id="path8980" d="m946.92 1264.5l161.18-35.3-75.1-77.3z"/><path id="path8982" d="m511.47 1162.8l124.23 148 2.25-146.4z"/><path id="path8984" d="m635.7 1310.8l119.17-150.2-116.92 3.8z"/><path id="path8986" d="m635.7 1310.8l165.54-13.2-46.37-137z"/><path id="path8988" d="m399.52 1260.1l236.18 50.7-124.23-148z"/></g></g></svg>
