<?xml version="1.0" encoding="UTF-8" standalone="no"?>
<!-- Created with Inkscape (http://www.inkscape.org/) -->
<svg id="svg12601" xmlns:rdf="http://www.w3.org/1999/02/22-rdf-syntax-ns#" xmlns="http://www.w3.org/2000/svg" height="1e3" width="1e3" version="1.1" xmlns:cc="http://creativecommons.org/ns#" xmlns:dc="http://purl.org/dc/elements/1.1/" viewBox="0 0 999.99999 1000">
 <metadata id="metadata12606">
  <rdf:RDF>
   <cc:Work rdf:about="">
    <dc:format>image/svg+xml</dc:format>
    <dc:type rdf:resource="http://purl.org/dc/dcmitype/StillImage"/>
    <dc:title/>
   </cc:Work>
  </rdf:RDF>
 </metadata>
 <g id="layer1" transform="translate(0 -52.362)">
  <g id="g13631" transform="matrix(1.15 0 0 1.15 -71.193 -199.32)" stroke="#000" stroke-width="4.3478" fill="none">
   <path id="path13643" d="m711.15 274.54 66.67 60.609-14.142-64.65z"/>
   <path id="path13645" d="m317.19 365.46 56.57-42.43-58.59-38.38z"/>
   <path id="path13647" d="m220.21 335.15 94.96-50.5-76.77-12.13z"/>
   <path id="path13649" d="m660.64 369.5 50.508-94.954-82.833 50.508z"/>
   <path id="path13651" d="m220.21 335.15 96.975 30.305-2.0203-80.812z"/>
   <path id="path13653" d="m373.76 323.03 68.69 60.609 64.65-80.812z"/>
   <path id="path13655" d="m660.64 369.5 117.18-34.35-66.67-60.61z"/>
   <path id="path13657" d="m236.38 397.78 80.812-32.325-96.975-30.305z"/>
   <path id="path13659" d="m660.64 369.5 101.02 30.305 16.162-64.65z"/>
   <path id="path13661" d="m317.19 365.46 125.26 18.183-68.69-60.609z"/>
   <path id="path13665" d="m236.38 397.78 58.589 72.731 22.223-105.06z"/>
   <path id="path13669" d="m628.31 325.05-40.406 165.67 72.731-121.22z"/>
   <path id="path13671" d="m507.1 302.83 80.812 187.89 40.406-165.67z"/>
   <path id="path13673" d="m442.45 383.64 145.46 107.08-80.81-187.89z"/>
   <path id="path13675" d="m193.95 462.43 101.02 8.0812-58.589-72.731z"/>
   <path id="path13677" d="m294.96 470.51 147.49-86.87-125.26-18.18z"/>
   <path id="path13679" d="m294.96 470.51 145.46 60.609 2.0203-147.48z"/>
   <path id="path13681" d="m440.43 531.12 147.48-40.4-145.46-107.08z"/>
   <path id="path13683" d="m181.83 523.04 113.13-52.53-101.01-8.08z"/>
   <path id="path13685" d="m587.91 490.72 173.75-90.92-101.02-30.3z"/>
   <path id="path13687" d="m587.91 490.72 210.11-36.37-36.36-54.55z"/>
   <path id="path13689" d="m684.88 599.81 113.14-145.46-210.11 36.37z"/>
   <path id="path13691" d="m684.88 599.81 133.34-82.83-20.2-62.63z"/>
   <path id="path13693" d="m684.88 599.81h127.28l6.0609-82.833z"/>
   <path id="path13695" d="m185.87 599.81 109.09-129.3-113.13 52.53z"/>
   <path id="path13697" d="m294.96 470.51 80.812 175.77 64.65-115.16z"/>
   <path id="path13699" d="m440.43 531.12 117.17 121.22 30.31-161.62z"/>
   <path id="path13701" d="m557.6 652.34 127.28-52.53-96.97-109.09z"/>
   <path id="path13703" d="m684.88 599.81 107.08 66.67 20.203-66.67z"/>
   <path id="path13705" d="m185.87 599.81 189.91 46.47-80.82-175.77z"/>
   <path id="path13707" d="m218.19 680.63 157.59-34.35-189.91-46.47z"/>
   <path id="path13709" d="m375.78 646.28 181.82 6.06-117.17-121.22z"/>
   <path id="path13711" d="m684.88 599.81 44.447 135.36 62.629-68.69z"/>
   <path id="path13713" d="m288.9 745.28 86.873-98.995-157.58 34.345z"/>
   <path id="path13719" d="m636.4 773.56 48.487-173.75-127.28 52.528z"/>
   <path id="path13721" d="m636.4 773.56 92.934-38.386-44.447-135.36z"/>
   <path id="path13725" d="m591.95 783.66 44.447-10.102-78.792-121.22z"/>
   <path id="path13727" d="m131.32 761.44 26.264 22.223-2.0203-34.345z"/>
   <path id="path13731" d="m157.58 783.66 46.467-8.0812-48.487-26.264z"/>
   <path id="path13733" d="m288.9 745.28 119.2 32.32-32.32-131.32z"/>
   <path id="path13735" d="m408.1 777.6 149.5-125.26-181.82-6.06z"/>
   <path id="path13739" d="m157.58 783.66 32.325 38.386 14.142-46.467z"/>
   <path id="path13743" d="m557.6 652.34-42.42 177.79 76.77-46.47z"/>
   <path id="path13745" d="m408.1 777.6 107.08 52.53 42.42-177.79z"/>
   <path id="path13747" d="m189.91 822.05 54.548-2.0203-40.406-44.447z"/>
   <path id="path13755" d="m252.54 866.49 46.467-10.102-54.548-36.365z"/>
   <path id="path13757" d="m210.11 872.55 34.345-52.528-54.548 2.0203z"/>
   <path id="path13759" d="m299.01 856.39 46.467 18.183 32.325-26.264z"/>
   <path id="path13761" d="m515.18 830.13 101.01-4.04-24.24-42.43z"/>
   <path id="path13763" d="m210.11 872.55 42.426-6.0609-8.0812-46.467z"/>
   <path id="path13767" d="m377.8 848.31 137.38-18.18-107.08-52.53z"/>
   <path id="path13769" d="m424.26 904.88 90.92-74.75-137.38 18.18z"/>
   <path id="path13773" d="m272.74 912.96 26.264-56.569-46.467 10.102z"/>
   <path id="path13775" d="m373.76 915.49 4.0406-67.175-32.325 26.264z"/>
   <path id="path13779" d="m373.76 915.49 50.508-10.607-46.467-56.569z"/>
   <path id="path13781" d="m299.01 856.39 34.345 64.65 12.122-46.467z"/>
   <path id="path13783" d="m333.35 921.04 40.406-5.5558-28.284-40.911z"/>
   <path id="path13785" d="m515.18 830.13 115.16 36.365-14.142-40.406z"/>
   <path id="path13787" d="m272.74 912.96 60.609 8.0812-34.345-64.65z"/>
   <path id="path13789" d="m553.56 933.16 76.78-66.67-115.16-36.36z"/>
   <path id="path13793" d="m210.11 872.55 62.629 40.406-20.203-46.467z"/>
   <path id="path13797" d="m375.78 939.23 48.487-34.345-50.508 10.607z"/>
   <path id="path13799" d="m424.26 904.88 129.3 28.28-38.38-103.03z"/>
   <path id="path13801" d="m478.81 971.55 74.75-38.39-129.3-28.28z"/>
   <path id="path13803" d="m553.56 933.16 70.711 68.69 6.0609-135.36z"/>
   <path id="path13805" d="m375.78 939.23 103.04 32.325-54.548-66.67z"/>
   <path id="path13809" d="m420.22 1032.2 58.59-60.65-103.03-32.32z"/>
   <path id="path13811" d="m371.74 1007.9 48.487 24.244-44.447-92.934z"/>
   <path id="path13813" d="m567.71 1036.2 56.569-34.345-70.711-68.69z"/>
   <path id="path13815" d="m478.81 971.55 88.9 64.65-14.15-103.04z"/>
   <path id="path13821" d="m420.22 1032.2 147.48 4.0406-88.893-64.65z"/>
  </g>
 </g>
</svg>
