<?xml version="1.0" encoding="UTF-8" standalone="no"?>
<!-- Created with Inkscape (http://www.inkscape.org/) -->
<svg id="svg2" xmlns:rdf="http://www.w3.org/1999/02/22-rdf-syntax-ns#" xmlns="http://www.w3.org/2000/svg" height="1e3" width="1e3" version="1.1" xmlns:cc="http://creativecommons.org/ns#" xmlns:dc="http://purl.org/dc/elements/1.1/" viewBox="0 0 1000 1000">
 <metadata id="metadata7">
  <rdf:RDF>
   <cc:Work rdf:about="">
    <dc:format>image/svg+xml</dc:format>
    <dc:type rdf:resource="http://purl.org/dc/dcmitype/StillImage"/>
    <dc:title/>
   </cc:Work>
  </rdf:RDF>
 </metadata>
 <g id="layer1" transform="translate(0 -52.362)" stroke="#aa7339" stroke-width="5">
  <g id="g5438" fill="none">
   <path id="path5440" d="m642.14 102.01h244.65l-784.29-1.08z"/>
   <path id="path5442" d="m322.14 102.01h320l-539.64-1.08z"/>
   <path id="path5444" d="m322.14 102.01l257.69 45.26 62.31-45.26z"/>
   <path id="path5446" d="m642.14 102.01l155.88 89.7 88.77-89.7z"/>
   <path id="path5448" d="m359.61 167.47l220.22-20.2-257.69-45.26z"/>
   <path id="path5450" d="m359.61 167.47l129.3 44.45 90.92-64.65z"/>
   <path id="path5452" d="m282.84 220l76.77-52.53-37.47-65.46z"/>
   <path id="path5454" d="m579.83 147.27l64.65 80.81-2.34-126.07z"/>
   <path id="path5456" d="m713.17 228.08l84.85-36.37-155.88-89.7z"/>
   <path id="path5458" d="m163.64 222.02l158.5-120.01-219.64-1.08z"/>
   <path id="path5460" d="m644.48 228.08h68.69l-71.03-126.07z"/>
   <path id="path5462" d="m50.357 154.15l113.28 67.87-61.14-121.09z"/>
   <path id="path5464" d="m163.64 222.02l119.2-2.02 39.3-117.99z"/>
   <path id="path5466" d="m798.02 191.71l152.34-32.92-63.57-56.78z"/>
   <path id="path5468" d="m282.84 220l80.81 40.4-4.04-92.93z"/>
   <path id="path5478" d="m798.02 191.71l152.34 64.22v-97.14z"/>
   <path id="path5480" d="m49.643 284.86l114-62.84-113.28-67.87z"/>
   <path id="path5492" d="m197.99 329.09l84.85-109.09-119.2 2.02z"/>
   <path id="path5494" d="m446.49 347.28l74.75-82.84-96.98 16.17z"/>
   <path id="path5496" d="m711.15 318.99l86.87-127.28-84.85 36.37z"/>
   <path id="path5498" d="m846.51 365.46l103.85-109.53-152.34-64.22z"/>
   <path id="path5500" d="m49.643 284.86l148.35 44.23-34.35-107.07z"/>
   <path id="path5502" d="m711.15 318.99l135.36 46.47-48.49-173.75z"/>
   <path id="path5504" d="m290.92 379.6l72.73-119.2-80.81-40.4z"/>
   <path id="path5506" d="m197.99 329.09l92.93 50.51-8.08-159.6z"/>
   <path id="path5512" d="m355.57 385.66l90.92-38.38-22.23-66.67z"/>
   <path id="path5514" d="m767.72 403.84l78.79-38.38-135.36-46.47z"/>
   <path id="path5516" d="m846.51 365.46l103.85 33.33v-142.86z"/>
   <path id="path5518" d="m446.49 347.28l159.6-26.27-84.85-56.57z"/>
   <path id="path5520" d="m713.17 432.13l54.55-28.29-56.57-84.85z"/>
   <path id="path5524" d="m94.954 436.17l103.04-107.08-148.35-44.23z"/>
   <path id="path5526" d="m446.49 347.28l107.07 90.91 52.53-117.18z"/>
   <path id="path5530" d="m208.09 458.39l82.83-78.79-92.93-50.51z"/>
   <path id="path5534" d="m553.56 438.19l94.96 24.24-42.43-141.42z"/>
   <path id="path5536" d="m94.954 436.17l113.14 22.22-10.1-129.3z"/>
   <path id="path5540" d="m208.09 458.39l84.85 80.81-2.02-159.6z"/>
   <path id="path5544" d="m866.71 549.31l83.65-150.52-103.85-33.33z"/>
   <path id="path5546" d="m767.72 403.84l98.99 145.47-20.2-183.85z"/>
   <path id="path5548" d="m357.59 516.98l88.9-169.7-90.92 38.38z"/>
   <path id="path5552" d="m357.59 516.98l195.97-78.79-107.07-90.91z"/>
   <path id="path5554" d="m553.56 438.19l76.78 121.22 18.18-96.98z"/>
   <path id="path5558" d="m551.54 575.57l78.8-16.16-76.78-121.22z"/>
   <path id="path5560" d="m715.19 557.39l52.53-153.55-54.55 28.29z"/>
   <path id="path5562" d="m715.19 557.39l151.52-8.08-98.99-145.47z"/>
   <path id="path5564" d="m49.643 570.58l79.657 41.36-34.346-175.77z"/>
   <path id="path5566" d="m129.3 611.94l78.79-153.55-113.14-22.22z"/>
   <path id="path5568" d="m357.59 516.98l193.95 58.59 2.02-137.38z"/>
   <path id="path5572" d="m418.2 611.94l133.34-36.37-193.95-58.59z"/>
   <path id="path5576" d="m129.3 611.94l163.64-72.74-84.85-80.81z"/>
   <path id="path5580" d="m418.2 611.94l123.24 22.22 10.1-58.59z"/>
   <path id="path5586" d="m950.36 655.93v-257.14l-83.65 150.52z"/>
   <path id="path5592" d="m49.643 284.86v285.72l45.311-134.41z"/>
   <path id="path5594" d="m866.71 549.31l36.37 143.44 47.28-36.82z"/>
   <path id="path5598" d="m715.19 672.54l151.52-123.23-151.52 8.08z"/>
   <path id="path5602" d="m781.86 725.07l84.85-175.76-151.52 123.23z"/>
   <path id="path5606" d="m781.86 725.07l121.22-32.32-36.37-143.44z"/>
   <path id="path5610" d="m303.05 743.26l54.54-2.02 10.11-80.82z"/>
   <path id="path5612" d="m292.94 539.2l10.11 204.06 64.65-82.84z"/>
   <path id="path5616" d="m129.3 611.94l173.75 131.32-10.11-204.06z"/>
   <path id="path5618" d="m511.14 757.4l76.77-86.88-84.85 24.25z"/>
   <path id="path5622" d="m357.59 741.24l145.47-46.47-135.36-34.35z"/>
   <path id="path5624" d="m697.01 781.64l84.85-56.57-66.67-52.53z"/>
   <path id="path5626" d="m511.14 757.4l121.22-8.08-44.45-78.8z"/>
   <path id="path5628" d="m511.14 757.4l88.89 48.48 32.33-56.56z"/>
   <path id="path5630" d="m357.59 741.24l153.55 16.16-8.08-62.63z"/>
   <path id="path5632" d="m404.06 807.91l107.08-50.51-153.55-16.16z"/>
   <path id="path5634" d="m151.52 820.03l151.53-76.77-173.75-131.32z"/>
   <path id="path5636" d="m49.643 570.58v257.14l79.657-215.78z"/>
   <path id="path5638" d="m49.643 827.72l101.88-7.69-22.22-208.09z"/>
   <path id="path5642" d="m404.06 807.91l99 24.24 8.08-74.75z"/>
   <path id="path5644" d="m503.06 832.15l96.97-26.27-88.89-48.48z"/>
   <path id="path5650" d="m814.18 858.41l88.9-165.66-121.22 32.32z"/>
   <path id="path5652" d="m697.01 781.64l117.17 76.77-32.32-133.34z"/>
   <path id="path5656" d="m151.52 820.03l109.1 82.83 42.43-159.6z"/>
   <path id="path5658" d="m260.62 902.86l115.16-44.45-72.73-115.15z"/>
   <path id="path5668" d="m814.18 858.41l136.18 79.31-47.28-244.97z"/>
   <path id="path5670" d="m400.02 929.12l109.1-38.38-133.34-32.33z"/>
   <path id="path5672" d="m509.12 890.74l82.83 50.51 42.43-82.84z"/>
   <path id="path5674" d="m950.36 937.72v-281.79l-47.28 36.82z"/>
   <path id="path5676" d="m634.38 858.41h179.8l-117.17-76.77z"/>
   <path id="path5678" d="m49.643 942l101.88-121.97-101.88 7.69z"/>
   <path id="path5680" d="m260.62 902.86l139.4 26.26-24.24-70.71z"/>
   <path id="path5682" d="m326.43 1002.4l73.59-73.28-139.4-26.26z"/>
   <path id="path5684" d="m701.79 1002.4l112.39-143.99h-179.8z"/>
   <path id="path5686" d="m109.64 1002.4l41.88-182.37-101.88 121.97z"/>
   <path id="path5688" d="m814.18 858.41l82.96 143.99 53.22-64.68z"/>
   <path id="path5690" d="m591.95 941.25l109.84 61.15-67.41-143.99z"/>
   <path id="path5692" d="m109.64 1002.4l150.98-99.54-109.1-82.83z"/>
   <path id="path5694" d="m701.79 1002.4h195.35l-82.96-143.99z"/>
   <path id="path5696" d="m109.64 1002.4h216.79l-65.81-99.54z"/>
   <path id="path5698" d="m400.02 929.12l191.93 12.13-82.83-50.51z"/>
   <path id="path5700" d="m326.43 1002.4l265.52-61.15-191.93-12.13z"/>
   <path id="path5702" d="m326.43 1002.4h375.36l-109.84-61.15z"/>
  </g>
  <g id="g6581" fill="none">
   <path id="path6583" d="m591.43 241.65l53.05-13.57-64.65-80.81z"/>
   <path id="path6585" d="m488.91 211.92l102.52 29.73-11.6-94.38z"/>
   <path id="path6587" d="m591.43 241.65l55.07 55.12-2.02-68.69z"/>
  </g>
  <g id="g7020">
   <path id="path7022" d="m363.65 260.4l125.26-48.48-129.3-44.45z" stroke="#aa7339" stroke-width="5" fill="none"/>
  </g>
  <g id="g7436">
   <path id="path7438" d="m541.44 634.16l88.9-74.75-78.8 16.16z" stroke="#aa7339" stroke-width="5" fill="none"/>
  </g>
  <g id="g7829">
   <path id="path7831" d="m632.36 749.32l12.12-143.45-56.57 64.65z" stroke="#aa7339" stroke-width="5" fill="none"/>
  </g>
 </g>
</svg>
