<?xml version="1.0" encoding="UTF-8" standalone="no"?>
<svg
   xmlns:dc="http://purl.org/dc/elements/1.1/"
   xmlns:cc="http://creativecommons.org/ns#"
   xmlns:rdf="http://www.w3.org/1999/02/22-rdf-syntax-ns#"
   xmlns:svg="http://www.w3.org/2000/svg"
   xmlns="http://www.w3.org/2000/svg"
   id="svg4255"
   xml:space="preserve"
   height="772.828"
   width="548.84729"
   y="0px"
   x="0px"
   version="1.0"><metadata
     id="metadata4266"><rdf:RDF><cc:Work
         rdf:about=""><dc:format>image/svg+xml</dc:format><dc:type
           rdf:resource="http://purl.org/dc/dcmitype/StillImage" /><dc:title></dc:title></cc:Work></rdf:RDF></metadata><defs
     id="defs4264" /><g
     style="fill:#262626;fill-opacity:1"
     transform="translate(-120.76525,-40.839722)"
     id="Layer 6"><g
       style="fill:#262626;fill-opacity:1"
       id="Layer 7"><g
         style="fill:#262626;fill-opacity:1"
         id="Layer_57_&lt;M&gt;"><path
           id="path4260"
           d="m 496.107,227.341 c -1.9,0.2 -21.3,0.8 -43,1.3 -38.2,1 -72.6,2.5 -86,3.8 -5.1,0.5 -5.8,0.8 -3.5,1.2 l 3,0.6 0.6,14.1 c 0.3,7.7 0.9,14.6 1.3,15.2 1.7,2.9 17.3,4.7 52.1,6.2 29.9,1.2 65.6,1.2 75.4,0 4.4,-0.6 8.2,-1.7 9.3,-2.7 4.4,-3.9 7.2,-25 4.6,-34.8 l -1.3,-5 -4.5,-0.1 c -2.5,-0.1 -6.1,0 -8,0.2 m 2,-160.1004 c -1.8,2.2 -0.7,14.5 2,22.4 1.2,3.5 6,15.0004 10.6,25.5004 4.7,10.5 8.8,19.8 9.1,20.6 0.3,0.8 -1.3,-0.6 -3.5,-3.1 -8.3,-9.3 -29.8,-22.2 -43.4,-25.9 -19.8,-5.3 -54.2,-7.1004 -68.9,-3.6 -8.2,1.9 -22.7,8 -31.7,13.4 -20.9,12.6 -37.6,34 -43.3,55.7 -2.7,10.1 -2.9,31.1 -0.5,49.9 l 1.6,12.8 -3.9,4.3 c -2.2,2.3 -4.6,5.7 -5.5,7.4 -1.7,3.3 -2,2.2 3.1,15.4 l 1.8,4.9 -3.7,2.9 c -4.9,4 -8.1,9.3 -7.3,11.9 0.4,1.2 2.5,5.3 4.7,9.1 l 4,6.9 -4,4.8 c -7,8.5 -7.8,11.8 -3.5,15 l 2.6,1.9 -1.7,8 c -0.9,4.4 -1.4,9.2 -1,10.7 0.3,1.4 3,4.7 6,7.2 2.9,2.5 5.6,5.4 5.9,6.3 1.1,3.6 -18.5,54.5 -48.5,126.1 -12,28.7 -17.9,48.5 -16.2,55.4 0.2,1.1 3.4,5.1 7,8.8 l 6.5,6.6 -3.4,4.4 c -1.8,2.4 -12.8,14 -24.4,25.8 -34.5,35.3 -60.8,65.4 -82.1,94 -15.1,20.3 -14.9,19.7 -17.3,39.5 -4.8,39.7 -4.8,40.1 1.4,49 4.8,7.1 24.6,26.2 27.9,27.1 3.9,0.9 19.9,-0.1 37.6,-2.5 26.7,-3.6 44.7,-5.1 62.1,-5.1 9.2,0 17.9,-0.4 19.2,-0.9 1.3,-0.5 2.9,-2.2 3.5,-3.8 1.4,-3.4 10.9,-38.3 11.8,-43.3 0.5,-2.7 3.3,-6.2 12.3,-15.5 25.3,-26.2 30.8,-35.3 27.1,-44.9 -1.2,-3.1 -0.9,-3.2 8.9,-1.1 9.9,2.1 22.8,6.4 25.7,8.7 2,1.6 2.4,2.8 2.4,7.3 0,7.8 -2.6,26.8 -5,35.9 -2.5,9.7 -2.5,12.8 -0.2,14.9 3.4,3.1 15.9,7 52.7,16.2 30.8,7.7 37.3,9.1 38.5,8 4.2,-3.6 31,-14.9 52.3,-22 7.2,-2.4 13.7,-5.1 14.6,-6 1.3,-1.3 1.6,-4.4 1.6,-19.8 0,-26.2 -1.5,-29.8 -14,-34.1 -3.8,-1.4 -7,-2.8 -7,-3.3 0,-0.4 1.1,-3.5 2.4,-6.8 3.1,-8.1 3.8,-19.8 1.7,-28.8 -2.9,-12.3 -10.9,-25.7 -20,-33.3 l -4.5,-3.7 2.9,-5.6 c 1.5,-3.1 5.2,-9.7 8,-14.6 14.9,-25.5 15.9,-27.7 18.4,-43 2.5,-15 6.6,-63.3 6.6,-78.7 l 0,-8.7 5.8,-1 c 22.7,-4.4 42.6,-12.9 51.2,-22.1 2.5,-2.7 2.9,-2.8 7.1,-1.8 2.4,0.5 9.1,0.8 14.9,0.6 9.4,-0.3 11.1,-0.7 15.9,-3.3 3,-1.7 6.7,-4.7 8.1,-6.7 5.5,-7.5 4.4,-19.4 -2.4,-27.4 -2.5,-3 -3.5,-5.2 -4.1,-9.4 -0.3,-3 -1.1,-7.2 -1.6,-9.3 -0.9,-3.3 -0.7,-4.2 0.8,-5.9 1.3,-1.4 1.9,-4.3 2.4,-11.1 0.3,-5.2 1.4,-11.1 2.4,-13.7 1.4,-3.4 1.8,-7.3 1.9,-15.5 0.1,-12.3 -2.1,-21.5 -7.5,-31.4 -1.6,-3.1 -2.9,-7 -2.9,-9 0,-4.1 -4.5,-14.1 -8.3,-18.6 -1.4,-1.7 -4.1,-3.9 -5.9,-4.9 -3.8,-2 -2.6,1.8 -16.7,-52.1 -4.9,-18.5 -13.5,-45.2 -20.1,-62.5 -9.4,-24.4 -23,-47.1 -36,-59.9004 -15.5,-15.2 -40.4,-27.2 -45,-21.6 m 15.3,11.1 c 20.4,10.3 35.4,26.6004 48.6,53.1004 12.8,25.6 26.5,67.5 37.1,113.3 1.6,7.2 3,13.2 3,13.3 0,0.1 -3.5,0.3 -7.8,0.4 -4.3,0.1 -10.5,0.9 -13.7,1.8 -3.3,0.9 -6.9,1.9 -8.1,2.2 -1.9,0.4 -2.2,-0.4 -4.2,-10.9 -7.8,-39.5 -18.5,-71.6 -36.9,-111.3 -14.4,-30.8 -20.6,-45.1004 -23.1,-53.5004 -2.5,-8.2 -3.4,-12 -2.7,-12 0.3,0 3.8,1.6 7.8,3.6 m -59.5,32.3004 c 6.2,1.1 14,2.7 17.3,3.6 13.1,3.3 34.3,16.9 41.2,26.2 12.5,17.1 19.4,47.5 16.1,71.8 -0.7,5.5 -1.3,11.1 -1.4,12.4 0,2.2 -0.9,1.6 -7.7,-5 -11.9,-11.5 -23.3,-19.2 -35.8,-24.5 l -4,-1.6 1.9,2.1 c 1.1,1.2 6.9,5.6 13,10 14.5,10.2 31.5,25.6 36.7,33.2 8,11.8 8.8,17.5 3.7,25.5 -1.7,2.7 -4.2,7.4 -5.6,10.4 -4.8,10.5 -24.1,35 -40.5,51.3 -9.3,9.3 -9.1,9.9 0.8,2.3 9.3,-7.2 24.9,-23.1 32.7,-33.3 l 7.1,-9.3 1.7,2.3 c 4,5.1 4,6 1.4,13.8 -2.9,8.4 -10,22.8 -15.3,30.9 -5.5,8.5 -5.6,8.9 -0.7,3.5 2.6,-2.8 7.2,-8.8 10.3,-13.4 l 5.6,-8.3 1.5,2.7 c 2.1,4.2 1,9.8 -4.2,20 -4.9,9.5 -5.3,11.4 -3.4,13.3 0.6,0.6 1,1.4 0.7,1.6 -1.3,1.4 -29.1,2.8 -42.9,2.2 -29.4,-1.3 -80.1,-6.7 -99,-10.6 -17.6,-3.6 -31.5,-6.1 -34.3,-6.2 -1.5,-0.1 -6.1,1.6 -10.2,3.7 l -7.4,3.7 -5.1,-4.2 c -2.7,-2.3 -5,-4.7 -5,-5.3 0.1,-0.7 0.7,-3.9 1.5,-7.2 2,-8.2 1.9,-11.5 -0.6,-14.1 -2.4,-2.6 -1.9,-4.2 3,-8.8 l 3.1,-3 2.2,2.1 c 7.1,6.5 26.5,16.8 47.9,25.3 14.4,5.8 14.6,5.8 4.2,0.2 -20.5,-11.1 -40.7,-22.9 -46.6,-27.3 -5.4,-3.9 -6.8,-5.7 -10.9,-13.7 l -4.7,-9.1 5.2,-4.6 5.2,-4.5 1.9,2.7 c 4.9,7 14.3,15 23.3,19.6 5,2.6 9.5,4.7 9.9,4.7 0.4,0 -1.9,-1.8 -5.2,-4.1 -15.9,-11 -34.4,-34.3 -34.4,-43.5 0,-3.9 27.3,-29.4 49.3,-46 17.5,-13.2 17.3,-13 11.2,-10.3 -12.1,5.4 -28,16.4 -42.2,29.4 -4.6,4.3 -8.6,7.5 -8.9,7.3 -1.1,-1.1 -3.5,-36 -2.9,-42.8 1.8,-20.6 8.4,-34.8 23.4,-50.4 13.7,-14.1 32.5,-24.8 50.2,-28.6 6.9,-1.4 33,-0.4 45.7,1.9 m -29.4,141.7 c 1.6,0.6 2.1,3 1,5.8 -0.9,2.3 -6.1,2.1 -7.4,-0.3 -1.3,-2.5 -1.3,-2.7 0.6,-4.5 1.6,-1.7 3.3,-2 5.8,-1 m 202,127.9 c 0.4,3.6 0.4,7 0.1,7.5 -0.4,0.6 -2.1,-0.1 -3.9,-1.5 -1.8,-1.4 -5.8,-3.4 -8.7,-4.5 -4.2,-1.5 -5,-2 -3.4,-2.5 1.1,-0.3 4.5,-1.7 7.5,-2.9 3,-1.3 6,-2.4 6.6,-2.5 0.7,-0.1 1.4,2.6 1.8,6.4 m 3.9,19.5 c 10,2.9 6.5,18 -4.7,20.9 -8.1,2 -24.9,0.7 -33.7,-2.7 -3,-1.2 -8.9,-7.1 -8.9,-8.8 0,-3.4 10,-9 19,-10.8 4.1,-0.8 24.2,0.2 28.3,1.4 m -69.5,12.9 c 1.3,3.3 4.8,7.5 8.1,9.7 4.5,2.9 11.7,4.2 14.8,2.6 1.1,-0.6 2.5,-0.7 3.3,-0.2 1.8,1.1 -1.3,3.7 -10,8.4 -11.9,6.3 -26.2,10.5 -35.7,10.6 -4.1,0 -4.3,-0.2 -4.3,-2.8 0,-1.6 -0.3,-6.3 -0.6,-10.4 l -0.7,-7.6 5.2,-1.1 c 7.3,-1.5 10.9,-3.7 13.3,-7.7 1.6,-2.8 2.5,-3.3 4.2,-2.8 1.1,0.4 2.2,0.9 2.4,1.3 m -156.4,12.6 c 4.4,0.9 8.1,1.7 8.3,1.9 0.2,0.2 -1,0.9 -2.7,1.6 -1.7,0.7 -3.5,2.1 -4,3 -0.6,1.1 -2.6,1.9 -5.4,2.2 -2.4,0.3 -5.6,1.4 -7,2.5 -2.4,1.9 -8.1,2.1 -7.4,0.3 1.1,-2.6 8.5,-13 9.3,-13 0.6,0 4.6,0.7 8.9,1.5 m 123.6,18.6 0,18.9 -3.7,0 c -2,0 -5.6,-1 -8,-2.1 -3,-1.4 -5.5,-2 -7.7,-1.6 -2.8,0.4 -3.5,0.1 -4.9,-2.3 -0.9,-1.5 -2.9,-3.3 -4.5,-3.9 -1.6,-0.7 -3.6,-2.7 -4.5,-4.7 -1.5,-3.1 -4.4,-5.1 -9.9,-6.8 -1.1,-0.3 -1.8,-1.5 -1.8,-2.9 0,-1.2 -0.9,-4 -2,-6.2 -1.1,-2.1 -1.9,-3.9 -1.7,-4 0.5,-0.5 47.3,-4 48,-3.7 0.4,0.2 0.7,8.8 0.7,19.3 m -92.6,-11.1 c 2.6,2.2 5.2,4 5.7,4 1.9,0 0.7,-3 -2.2,-5.4 l -3.1,-2.6 16.7,0 16.6,0 -3.2,5.7 c -7,12.5 -17.7,25.3 -21,25.3 -0.7,0 -2.7,-0.9 -4.5,-2.1 -2.9,-1.7 -3.2,-2.4 -2.4,-4 0.6,-1 1.8,-1.9 2.6,-1.9 1.8,0 7.4,-5.3 7.4,-7.1 0,-0.8 -0.6,-0.7 -1.8,0.4 -2.4,2.2 -7.1,3.9 -9.2,3.2 -1,-0.3 -2.5,-2 -3.4,-3.8 l -1.6,-3.2 0,2.7 c 0,1.4 1.1,4 2.5,5.6 1.9,2.3 2.2,3.2 1.2,4 -1.1,0.9 -8.6,2.6 -8.8,2 -0.1,-0.2 -0.4,-6.3 -0.8,-13.6 l -0.6,-13.2 2.5,0 c 1.5,0 4.6,1.7 7.4,4 m -15,4.4 c 1.1,10.1 -1.7,15.6 -7.1,13.5 -3.2,-1.2 -2.8,-1.3 -6.1,2.2 -2,2.2 -4.1,3.2 -7.3,3.6 -2.5,0.4 -5.6,1.6 -7.3,3 -2.5,2.1 -3.6,2.4 -7.3,1.8 -3.2,-0.5 -4.7,-0.2 -5.9,0.9 -0.8,0.9 -3,1.6 -4.7,1.7 -1.8,0 -4,0.2 -5,0.4 -1.3,0.2 -1.7,-0.1 -1.3,-1.2 1.2,-3 12.9,-19.4 14.5,-20.3 1,-0.5 3.3,-0.4 5.7,0.2 3.7,1 4.5,0.9 7.3,-1.1 1.9,-1.4 4.6,-2.2 7.3,-2.3 3.2,0 4.7,-0.7 6.7,-2.9 2.4,-2.6 6.2,-4.7 8.7,-4.8 0.6,-0.1 1.4,2.3 1.8,5.3 m 56.4,3.6 c 0.7,4.3 0.6,6.9 0,7.7 -0.7,0.9 -0.7,1.3 0,1.3 0.6,0 1.4,-0.5 1.7,-1 0.3,-0.6 2.1,-1 4,-1 5.1,0 7.8,4 7.2,10.5 l -0.4,4.9 2.2,-2.8 c 1.5,-1.8 2.9,-2.7 3.9,-2.3 2.4,1 6.6,8.4 6.6,11.9 l 0.1,3.3 1.7,-3.5 c 1.5,-3 2.2,-3.5 5.7,-3.8 5.3,-0.4 8.3,2.7 9.4,9.4 0.6,4.1 0.9,4.5 1.4,2.4 0.4,-1.4 0.8,-3.9 0.9,-5.5 0.2,-2.2 0.9,-3.1 2.4,-3.3 3.9,-0.6 4.6,1.9 3.8,12.8 l -0.7,10.1 -2.6,-0.6 c -1.4,-0.3 -3.9,-1.9 -5.6,-3.5 -3.1,-2.9 -12.1,-6 -17.4,-6 -1.9,0 -4.2,-1.1 -6.3,-2.9 -1.8,-1.5 -5,-3.1 -7,-3.5 -6.9,-1.3 -9,-6.4 -6.3,-15.6 0.7,-2.5 0.7,-2.5 -0.9,-0.4 -1.5,2.1 -1.6,2.1 -6.7,0.5 -4.9,-1.7 -9.9,-5.8 -9.9,-8.4 0,-2.2 10.2,-18.9 11,-18 0.5,0.4 1.3,3.7 1.8,7.3 m -54.8,17.1 c 0,1.1 -5.8,12.2 -12.8,24.7 -19.5,34.3 -22.8,41 -21.6,43 1.3,2 12.8,8 17,8.8 3.9,0.7 8.4,-2.9 12.5,-10.2 l 3,-5.3 5,2.5 c 2.8,1.4 7.4,2.8 10.4,3.1 4.9,0.5 5.6,0.3 7.8,-2.1 3.9,-4.2 5.2,-13.2 5.2,-36.9 0,-11.4 0.3,-20.7 0.6,-20.7 0.3,0 2.7,-1.8 5.2,-4.1 l 4.7,-4 3.8,4 c 2.2,2.3 5.2,4.4 6.9,4.7 2.7,0.5 3.3,1.2 4.3,5.2 1.3,5.4 5.7,9.9 10.5,10.8 1.8,0.3 4.8,1.9 6.6,3.5 1.8,1.6 4.4,2.9 5.7,2.9 5.1,0 16.3,3.4 17.3,5.2 1.4,2.7 6.7,5.1 9.6,4.3 2.5,-0.6 2.6,-0.6 2,4.2 -0.4,2.6 -1.1,10.9 -1.7,18.3 -1.6,20.4 -4.3,31.8 -9.8,42.3 -2.5,4.8 -5.1,9.2 -5.7,9.7 -1.2,1 -56.4,-3.5 -57.5,-4.7 -0.3,-0.3 0,-0.7 0.5,-1 2.2,-0.8 17.9,-10.4 16,-9.8 -1.1,0.4 -5.6,2 -10.1,3.5 -4.4,1.5 -9.4,3.4 -11,4.3 l -2.9,1.5 -1.2,-5.1 c -1,-4.7 -0.9,-5.3 1.3,-8.6 3.2,-4.7 3.1,-7.1 -0.2,-3.2 l -2.5,3.1 -3,-2.2 c -2.7,-2 -3.2,-2.1 -9.5,-0.9 -8.5,1.5 -11.7,3.2 -17.6,8.9 l -4.7,4.5 -10.3,-1.2 c -27.9,-3.4 -74.4,-11.3 -76.2,-13.1 -1.2,-1.2 18.2,-37.3 33.8,-62.4 7.3,-11.8 11.2,-15.1 19.3,-16.1 3.1,-0.4 6.8,-1.2 8.2,-1.8 1.4,-0.6 4.8,-1.2 7.4,-1.2 3.2,-0.2 5.5,-0.9 7,-2.2 1.2,-1.2 4.1,-2.4 6.4,-2.8 2.4,-0.4 5.7,-1.6 7.5,-2.8 2,-1.4 4.9,-2.3 8,-2.4 4.1,-0.1 4.8,0.2 4.8,1.8 m -54,132.8 c 0,0.4 -1.7,2 -3.7,3.4 -4.1,2.7 -15.7,13.3 -13.3,12.1 0.8,-0.5 3.5,-2.2 6,-4 5.4,-3.7 17.3,-10.4 18.7,-10.4 0.5,0 -3.1,4.2 -8.2,9.2 -10.1,10.4 -19.1,21.8 -26.7,34 -5.2,8.4 -11,19.9 -12.2,24 -1.1,3.8 -2.2,0.4 -4,-11.9 -2.2,-15.3 -2.1,-27.4 0.2,-30.2 3.2,-4.1 37.5,-27 40.5,-27 1.5,-0.1 2.7,0.3 2.7,0.8 m 35.2,3.7 c 2.3,0.5 2.8,1.3 3.7,5.5 1.6,7.4 1.3,14.9 -1,26.2 -3.1,15.4 -10.1,31.7 -17.3,39.9 l -2.1,2.5 -7.6,-2.6 -7.7,-2.6 4.3,-5.7 c 8.4,-11.1 14.4,-31.8 16.1,-55.1 l 0.7,-9.8 4.1,0.6 c 2.3,0.3 5.3,0.8 6.8,1.1 m 12.9,10.1 c 2,4.8 3.4,9.8 3.5,12.9 0.1,2.7 0.7,6.8 1.3,9 2.5,9.1 0.1,25.5 -5.2,36.1 -2.8,5.4 -8.9,11.9 -13.8,14.5 -3.3,1.7 -3.3,1.7 -4.9,-1 -0.9,-1.5 -2.8,-3.3 -4.3,-4.1 l -2.6,-1.4 4.1,-6 c 5.3,-7.8 10.1,-18.2 13.4,-29.3 2.3,-7.6 2.7,-10.8 2.8,-22.4 0.1,-7.4 -0.3,-14.6 -0.7,-15.8 -0.8,-2.1 -0.7,-2.3 1.1,-1.3 1.1,0.6 3.5,4.6 5.3,8.8 m 13.5,-6.4 c 0.1,0.1 2.5,4.9 5.4,10.7 8.6,17.1 17.5,28.6 21.6,27.8 1.6,-0.3 2,-1.6 2.5,-8.3 0.7,-8.9 1.9,-14 5,-21 l 2.1,-4.7 7.6,0.8 c 8.6,0.7 9.2,1 17.8,6.2 7.5,4.5 10.8,7.3 15.5,13.2 13.1,16.2 15.4,37.2 5.8,53.4 -2.8,4.8 -1.9,7.3 3.3,8.6 2.2,0.6 3.7,1.4 3.3,1.8 -0.3,0.4 -8.4,2.8 -17.8,5.4 -9.5,2.6 -19.9,5.5 -23.2,6.4 -4.8,1.3 -8.1,1.5 -16.6,1 -5.8,-0.4 -11.1,-1.1 -11.9,-1.6 -1,-0.6 -0.8,-2.4 1,-9.1 3,-11.2 3.6,-23.4 1.6,-32.8 -3,-14.1 -11,-27.5 -20.5,-34.5 -3.9,-2.9 -5.1,-4.4 -5.1,-6.4 0,-1.5 -1.6,-6.2 -3.5,-10.6 l -3.4,-7.8 4.7,0.7 c 2.6,0.4 4.8,0.8 4.8,0.8 m -50.9,5.4 c -17.3,23.9 -35.1,49.3 -36.6,52.2 -3.3,6.5 -3.4,9.8 -0.4,16.3 l 2.7,6 -2.2,4.2 c -5,9.4 -35.9,40.9 -37,37.7 -0.2,-0.7 -1.4,-2.3 -2.5,-3.4 -1.9,-1.9 -2.8,-2 -21.1,-1.3 -31.2,1 -86,4.7 -92.1,6.1 -1.1,0.3 -2.7,0.1 -3.5,-0.5 -2.2,-1.4 -1.9,-15.9 0.4,-23 6.2,-18.7 26.1,-47.6 54.6,-79.5 15,-16.7 15.5,-17.1 18.3,-15.6 2,1 12,9.3 48.7,40.2 l 9.5,8 1.7,7.9 c 2.6,11.6 7.6,18.7 9.5,13.2 3.8,-11 15.6,-31.4 26.5,-45.9 6.9,-9.3 24.1,-27.3 26,-27.3 0.5,0 -0.6,2.1 -2.5,4.7 m 8.9,6.9 c -0.8,9.6 -4.5,25.3 -7.7,32.9 -2.9,6.7 -8.6,15.3 -11.6,17.2 -2.1,1.4 -3.2,1.4 -9.8,0.2 -4.1,-0.7 -7.5,-1.8 -7.5,-2.4 0,-0.6 3.7,-6.5 8.3,-13.1 10.7,-15.6 26.4,-39.6 27.3,-41.7 1.3,-3.6 1.6,-1.4 1,6.9 m 43.3,21.2 c 13.7,14.2 17.6,36.9 10.1,59 -4.6,13.6 -4.5,13.6 19.2,17.2 9,1.4 9.5,1.6 10.2,5.3 0.9,4.7 2,36.3 1.3,38 -0.5,1.2 -1.3,1.4 -3.9,0.6 -1.8,-0.5 -15.4,-3.9 -30.2,-7.5 -27,-6.6 -42.1,-10.8 -44.2,-12.5 -0.8,-0.6 -0.6,-3 0.7,-8.1 2.5,-10.2 4.9,-27.4 4.9,-34.9 l 0,-6.4 4.6,-2.4 c 6.9,-3.7 13.7,-11.7 16.7,-20 3.5,-9.3 5.1,-18.9 4.4,-26.7 -0.3,-3.7 -0.1,-6.4 0.5,-6.4 0.5,0 3.1,2.2 5.7,4.8 m 102.5,64.4 c 0.3,1.3 0.6,8.8 0.6,16.8 l 0,14.5 -10.8,3.7 c -12.8,4.3 -33.5,12.5 -41.1,16.2 -3,1.4 -5.6,2.6 -5.7,2.6 -0.1,0 -0.4,-8.2 -0.7,-18.3 -0.3,-10 -0.7,-19 -0.9,-20.1 -0.3,-1.6 1.5,-2.3 11.7,-5.3 16,-4.6 43.7,-12.1 45.1,-12.2 0.7,-0.1 1.4,0.9 1.8,2.1 m -233.3,27.5 c 2.5,6.2 2.1,10.6 -2.1,25.8 -2.2,8.2 -4.5,16.3 -5,18 l -1,3 -14.2,0.2 c -17.8,0.2 -43.9,2.6 -71.2,6.4 -11.4,1.7 -21.1,2.7 -21.4,2.4 -0.5,-0.4 1.2,-17.7 3.3,-33.5 0.2,-1.4 0.7,-5.9 1,-10.1 0.4,-4.2 1,-8.1 1.4,-8.8 1.4,-2.2 54.2,-5.7 90.4,-6 l 17.7,-0.1 1.1,2.7 m 204.3,-486.3 c 0.7,5.6 -0.9,20.7 -2.4,23.7 -1.2,2.1 -5.3,2.9 -15.5,2.9 l -8.3,0 1.5,-3.1 c 2.1,-4.3 1,-9.2 -2.9,-12.2 l -3.1,-2.5 4.4,-2.5 c 2.4,-1.4 6.9,-3.9 9.9,-5.6 l 5.5,-3.1 -5,0 c -4.3,0 -6.5,0.9 -15,5.6 -11.4,6.5 -20,9.7 -23.2,8.9 -1.3,-0.3 -2.3,-0.1 -2.3,0.4 0,1.6 3.6,3.1 7.4,3.1 3.4,0 3.6,0.2 3.6,3.3 0,1.8 0.7,4.2 1.5,5.3 0.8,1 1.5,2.1 1.5,2.4 0,0.3 -6.4,0.4 -14.2,0.2 l -14.3,-0.3 0,-6.4 c 0,-6.3 0.1,-6.5 2.5,-6.5 1.5,-0.1 -0.8,-1.4 -6,-3.4 -4.7,-1.8 -11.1,-4.5 -14.2,-6 -6.5,-3.1 -13.8,-4.2 -18.7,-2.9 -5.8,1.5 -4.7,3 2.6,3.6 6.7,0.5 18.3,4.2 18.3,5.8 0,0.4 -0.8,1 -1.8,1.3 -2.9,1 -4.5,5 -3.9,9.5 l 0.5,4.1 -5.6,0 c -5.5,0 -20.3,-1.4 -28.9,-2.6 l -4.3,-0.6 0,-12.4 0,-12.4 11.3,0.2 c 10.5,0.3 102.6,-1.9 109.2,-2.6 9.6,-0.9 9.2,-1.1 9.9,4.8 m -32.1,15.7 c 1.4,2.3 0.1,6.6 -2.4,7.2 -2.2,0.6 -5.9,-2.3 -5.9,-4.7 0,-4 6.2,-5.9 8.3,-2.5 m 93.5,63.2 c 1.1,2.9 2.5,7.7 3.2,10.8 l 1.3,5.7 -3.4,3.1 c -1.9,1.7 -3.9,3.1 -4.6,3.1 -2.9,0 -4.7,-21.3 -2.2,-27.2 1.5,-3.7 3.2,-2.4 5.7,4.5 m 47.7,13.8 c 6,1.7 9.5,4.7 12.2,10.5 2.5,5.5 4,16.4 2.9,20.8 -0.8,3.3 -4.7,5.3 -21.4,11 -20.5,7 -26.2,10.6 -29.7,18.8 -2,4.9 -3,17.2 -1.7,22.5 0.7,2.9 0.7,4.3 0,4.3 -2.2,0 -6.6,-4.1 -8.3,-7.9 -1.5,-3.5 -1.6,-4.8 -0.6,-9.7 2.4,-12.3 0.8,-29.6 -3.2,-34.2 -0.8,-1 -1.7,-3.7 -2.1,-6.1 -0.9,-5.7 1.8,-11.3 8.3,-17.4 11,-10.3 31,-16.1 43.6,-12.6 m -252.2,16.6 c 2,0.3 3.7,0.8 3.7,1.2 0,0.4 -2.9,1.9 -6.4,3.4 -7.1,3.1 -12.7,8.1 -15.9,14.2 -3.2,5.9 -3,18.1 0.3,25 5.4,11.2 19.9,22 38.3,28.6 4.8,1.8 8.7,3.6 8.7,4.1 0,0.5 -3.4,5.9 -7.6,12.1 -4.3,6.2 -12.3,17.9 -17.9,26.2 -20.2,29.5 -35.6,55.5 -50.5,85.2 l -9.7,19.1 -6.4,-7.6 c -3.5,-4.2 -10.6,-12.1 -15.8,-17.4 l -9.4,-9.7 0.6,-5.3 c 0.4,-2.9 1.8,-9 3.1,-13.6 2.6,-8.5 3.9,-11.9 23.1,-57.7 18,-43.2 23.8,-57.7 30.4,-75.8 7,-19.2 8,-21.3 12.4,-26.4 4.6,-5.3 8.6,-7.5 12.2,-6.8 1.7,0.3 4.7,0.8 6.8,1.2 m 57.8,10.8 c 10.7,1.4 31.6,3.2 46.4,4.1 23,1.4 30.2,1.4 48.5,0.4 29.4,-1.7 27.7,-2 31.9,6.3 3.2,6.3 3.4,7.5 3.9,19 0.3,9.5 0.1,13.6 -1.2,17.9 -1.5,5.3 -1.9,5.8 -6.9,8.2 -4.5,2.2 -7.7,2.7 -25.2,4 -75.3,5.7 -101.8,4.7 -130,-5.1 -12.6,-4.3 -20.8,-8.9 -28,-15.5 -8.8,-8.1 -11.9,-15.9 -9.4,-24.5 2.3,-8.4 11.1,-14.5 23.9,-16.6 7.7,-1.3 28.4,-0.5 46.1,1.8 m -90.1,196.5 c 6.9,1.7 17.8,3.6 53.5,9.1 7.2,1.1 13.4,2.1 14,2.2 0.5,0.2 -1.4,2.1 -4.2,4.2 l -5.1,3.8 -13.9,-0.2 c -15.7,-0.3 -30.5,-2.9 -48.8,-8.8 -6,-1.9 -11.2,-3.7 -11.3,-3.8 -0.2,-0.2 0.6,-2.4 1.7,-5 1.8,-4.1 2.4,-4.6 4.3,-4.1 1.3,0.4 5.7,1.5 9.8,2.6 m 108,-1.6 c 1.1,1.4 3.2,12.7 2.4,13.5 -0.3,0.4 -16.7,-1.2 -26.2,-2.5 l -4.3,-0.6 2.8,-3 c 2.8,-3 8.7,-6.5 13.3,-7.9 4.3,-1.3 10.7,-1 12,0.5 m -152.9,6.8 c 1,1.3 1.8,2.7 1.9,3.2 0,1.6 -6.5,9.2 -24.5,28.1 -48.7,51.5 -74.9,87.5 -79.9,109.5 -2.8,12.3 -2,20.4 2.5,24 1.8,1.5 1.8,1.9 0,16.5 -1,8.2 -2.2,18.4 -2.6,22.5 -0.3,4.1 -0.9,9 -1.3,10.8 l -0.7,3.4 -10.5,-10.6 c -14.2,-14.3 -14.6,-15.2 -13.1,-27.4 5,-42.9 4.9,-42.1 8.2,-47.5 7.8,-12.9 31,-42.3 52.2,-66.2 8.5,-9.6 64.8,-68.5 65.5,-68.5 0.2,0 1.2,1 2.3,2.2 m 41.8,8.3 c 18,5.6 34,8.5 47.4,8.5 l 11.5,0 -1.1,3 c -1,2.6 -1.5,2.9 -4.2,2.5 -1.6,-0.3 -10,-1.2 -18.5,-2 -15.6,-1.6 -52.2,-6.4 -52.9,-7.1 -0.2,-0.1 0.5,-2.4 1.5,-4.9 1.3,-3.4 2.2,-4.5 3.3,-4.1 0.9,0.3 6.7,2.1 13,4.1 m 92.406,1.1 2.8,0.6 -3.1,4.4 c -6.9,10.1 -13.4,14.1 -15.8,9.6 -1.1,-2.1 -0.7,-9.7 0.8,-13.6 1.1,-2.8 1.2,-2.8 6.9,-2.2 3.1,0.4 6.9,0.9 8.4,1.2 m 18.994,1.9 c 2,0.3 3.7,0.8 3.7,1 0,2.1 -3.3,5.9 -9,10.2 -6.9,5.3 -8.3,5.8 -13.8,4.7 l -3,-0.6 4.3,-5.3 c 2.3,-2.9 5.1,-6.7 6.1,-8.4 2,-3.3 1.3,-3.2 11.7,-1.6 m 33.7,3.4 c 11.3,1.1 23.7,2.3 27.7,2.6 l 7.1,0.7 -1.6,2.9 c -2.9,4.9 -5.7,5.4 -28.2,5.3 -11.3,-0.1 -22.7,-0.6 -25.5,-1 l -5,-0.9 -0.5,-5.8 c -0.3,-3.2 -0.4,-6 -0.1,-6.2 0.2,-0.2 1.5,-0.2 3,0 1.4,0.3 11.8,1.4 23.1,2.4 m -13.5,14.2 c 3.8,0.6 14.6,0.9 24.2,0.7 9.5,-0.2 17.3,-0.2 17.3,-0.1 0,1.6 -3.7,7.3 -4.7,7.3 -0.7,0 -10.7,-1.1 -22.1,-2.5 -11.4,-1.4 -23.1,-2.8 -26,-3.1 -5.3,-0.6 -5.3,-0.6 -3.6,-2.6 1.4,-1.5 2.6,-1.8 4.9,-1.4 1.6,0.4 6.1,1.1 10,1.7 m 80.3,-411.6 c 9.3,23.4 18.7,57.1 22.7,80.8 l 1.8,10.8 -3,3.2 c -6,6.3 -6.7,8.9 -7,24.2 -0.1,7.7 -0.6,16.6 -1.1,19.8 -1.1,7.3 0.1,16.1 3.4,24.3 2.2,5.5 2.4,7 1.5,9.6 -0.6,1.7 -1.1,4.8 -1.1,6.9 0,5.1 -1.7,5.8 -4.8,1.9 -2.8,-3.6 -7.6,-6 -12.1,-6 -4.6,0 -4.6,-3.7 0.1,-13.5 5.1,-10.6 5.9,-17.3 2.9,-24 -2.6,-5.8 -2.6,-6.1 -0.1,-13.6 2.4,-6.9 1.9,-10 -2.5,-15.9 -3.4,-4.6 -3.2,-6.3 1.5,-13.4 5.1,-8 7.2,-13.9 6.4,-18.5 -0.8,-4.2 -4.4,-11.8 -8.6,-17.9 -2.9,-4.1 -3,-4.7 -2.4,-11.5 1.7,-19.6 1.8,-32.5 0.3,-43.2 -0.9,-6.1 -1.9,-11.9 -2.3,-13 -0.4,-1.1 -0.5,-1.8 -0.1,-1.5 0.3,0.3 2.3,5 4.5,10.5 m 69.5,91.1 c 5.9,2.1 9,4.8 12.1,10.3 1.5,2.8 2.5,5.1 2.3,5.1 -0.3,0 -2.2,-0.6 -4.3,-1.4 -4,-1.4 -13.5,-2 -25.8,-1.8 -11.9,0.3 -22.6,4.4 -29.7,11.4 l -3.2,3.3 0.6,-5.7 c 0.7,-7.3 3,-11.1 9.2,-15.3 11.2,-7.7 26.9,-10.1 38.8,-5.9 m -5.5,24.5 0.3,4.7 -5.8,0.6 c -11.1,1.3 -20.2,4.8 -23.9,9.2 -0.8,1 -1.7,0.4 -3.9,-2.3 l -2.9,-3.6 3.3,-2.7 c 6.9,-5.8 21,-11.1 28.6,-10.7 l 4,0.2 0.3,4.6 m 13.3,-2.1 c 0.5,0 2.6,1.6 4.8,3.5 4.5,4.1 8.6,12.7 10.6,22.2 1.4,6.6 2,18.3 1,18.3 -0.3,0 -1.9,-1.5 -3.6,-3.4 -1.6,-1.9 -4.9,-4.4 -7.3,-5.5 l -4.2,-2.1 -3.2,-12.8 c -4.1,-16.2 -4.2,-22.2 -0.4,-20.7 0.7,0.3 1.8,0.5 2.3,0.5 m -11.9,20.422 c 1.8,7.4 2.1,6.9 -6.5,7.8 -6.3,0.7 -11.6,3 -16.6,7.2 -1.8,1.4 -3.3,2.5 -3.5,2.3 -0.1,-0.2 -1.1,-3.2 -2.2,-6.6 -1.8,-5.6 -1.9,-6.3 -0.5,-8.2 2.8,-3.6 16.2,-8.1 26.7,-9 0.5,-0.1 1.7,2.9 2.6,6.5"
           style="fill:#262626;fill-opacity:1" /></g></g></g></svg>