<?xml version="1.0" encoding="UTF-8" standalone="no"?>
<!-- Created with Inkscape (http://www.inkscape.org/) -->
<svg id="svg2" xmlns:rdf="http://www.w3.org/1999/02/22-rdf-syntax-ns#" xmlns="http://www.w3.org/2000/svg" height="1e3" width="1e3" version="1.1" xmlns:cc="http://creativecommons.org/ns#" xmlns:dc="http://purl.org/dc/elements/1.1/" viewBox="0 0 1000 1000">
 <metadata id="metadata7">
  <rdf:RDF>
   <cc:Work rdf:about="">
    <dc:format>image/svg+xml</dc:format>
    <dc:type rdf:resource="http://purl.org/dc/dcmitype/StillImage"/>
    <dc:title/>
   </cc:Work>
  </rdf:RDF>
 </metadata>
 <g id="layer2" stroke-linejoin="bevel" stroke="#86e2f9" stroke-width="5">
  <g id="g4726" fill="none">
   <path id="path4728" d="m365.71 50 88.571 30 51.429-60z"/>
   <path id="path4730" d="m534.29 134.29 87.14-90.004-115.72-24.286z"/>
   <path id="path4732" d="m454.29 80 80 54.286l-28.58-114.29z"/>
   <path id="path4734" d="m365.71 50 71.429 90 17.143-60z"/>
   <path id="path4736" d="m437.14 140 97.143-5.7143-80-54.286z"/>
   <path id="path4738" d="m534.29 134.29 80 35.714 7.1429-125.71z"/>
   <path id="path4740" d="m614.29 170 92.85-70-85.71-55.714z"/>
   <path id="path4742" d="m374.29 177.14 62.85-37.14-71.43-90z"/>
   <path id="path4744" d="m274.29 111.43 100 65.714l-8.58-127.14z"/>
   <path id="path4746" d="m614.29 170 80 12.857l12.85-82.86z"/>
   <path id="path4748" d="m297.14 185.71 77.143-8.5714-100-65.714z"/>
   <path id="path4750" d="m694.29 182.86 74.286 4.2857l-61.44-87.15z"/>
   <path id="path4752" d="m225.71 194.29 71.429-8.5714-22.857-74.286z"/>
   <path id="path4754" d="m324.29 274.29 50-97.143-77.143 8.5714z"/>
   <path id="path4756" d="m614.29 170 58.571 111.43 21.429-98.571z"/>
   <path id="path4758" d="m208.57 264.29 88.571-78.571-71.429 8.5714z"/>
   <path id="path4760" d="m208.57 264.29 115.71 10-27.143-88.571z"/>
   <path id="path4762" d="m694.29 182.86 97.143 80-22.857-75.714z"/>
   <path id="path4764" d="m672.86 281.43 118.57-18.571-97.143-80z"/>
   <path id="path4766" d="m250 344.29 74.286-70-115.71-10z"/>
   <path id="path4768" d="m672.86 281.43 64.286 77.143 54.286-95.714z"/>
   <path id="path4770" d="m328.57 442.86-4.2857-168.57-74.286 70z"/>
   <path id="path4774" d="m672.86 281.43 1.4286 162.86 62.857-85.714z"/>
   <path id="path4788" d="m207.14 447.14 121.43-4.28-78.57-98.57z"/>
   <path id="path4792" d="m674.29 444.29 117.14 2.8571-54.286-88.571z"/>
   <path id="path4802" d="m140 447.14 65.714 80 1.4286-80z"/>
   <path id="path4804" d="m112.86 485.71 92.85 41.43-65.71-80z"/>
   <path id="path4806" d="m498.57 520 141.43 20 34.29-95.71z"/>
   <path id="path4808" d="m205.71 527.14 122.86-84.286-121.43 4.2857z"/>
   <path id="path4810" d="m674.29 444.29 78.57 125.71 38.57-122.86z"/>
   <path id="path4812" d="m791.43 447.14 95.714 27.143-32.857-30z"/>
   <path id="path4814" d="m640 540 112.86 30-78.57-125.71z"/>
   <path id="path4816" d="m205.71 527.14 134.29 40-11.43-124.28z"/>
   <path id="path4818" d="m340 567.14 158.57-47.14l-170-77.143z"/>
   <path id="path4820" d="m752.86 570 134.28-95.71-95.71-27.15z"/>
   <path id="path4822" d="m447.14 610 52.86-17.14-1.43-72.86z"/>
   <path id="path4824" d="m111.43 605.71 94.286-78.571-92.857-41.429z"/>
   <path id="path4826" d="m340 567.14 107.14 42.86 51.43-90z"/>
   <path id="path4828" d="m498.57 520 68.57 105.71 72.86-85.71z"/>
   <path id="path4830" d="m500 592.86 67.14 32.85-68.57-105.71z"/>
   <path id="path4832" d="m752.86 570 132.86 38.571 1.4286-134.29z"/>
   <path id="path4834" d="m752.86 570 118.57 54.286 14.286-15.714z"/>
   <path id="path4836" d="m111.43 605.71 100 18.571-5.7143-97.143z"/>
   <path id="path4838" d="m127.14 628.57 84.286-4.2857-100-18.571z"/>
   <path id="path4840" d="m211.43 624.29 128.57-57.15l-134.29-40z"/>
   <path id="path4846" d="m340 567.14 80 87.15 27.14-44.29z"/>
   <path id="path4850" d="m582.86 684.29 57.14-144.29-72.86 85.71z"/>
   <path id="path4852" d="m640 540 92.857 168.57 20-138.57z"/>
   <path id="path4854" d="m732.86 708.57 138.57-84.28-118.57-54.29z"/>
   <path id="path4856" d="m582.86 684.29 150 24.286l-92.86-168.58z"/>
   <path id="path4858" d="m340 567.14 7.1428 167.14 72.857-80z"/>
   <path id="path4860" d="m347.14 734.29 71.43-24.29 1.43-55.71z"/>
   <path id="path4862" d="m111.43 650 100-25.714-84.286 4.2857z"/>
   <path id="path4864" d="m211.43 624.29 135.71 110l-7.14-167.15z"/>
   <path id="path4874" d="m732.86 708.57 152.86-60-14.286-24.286z"/>
   <path id="path4876" d="m111.43 650 102.86 98.571-2.8572-124.29z"/>
   <path id="path4884" d="m214.29 748.57 132.86-14.286-135.71-110z"/>
   <path id="path4886" d="m110 772.86 104.29-24.29-102.86-98.57z"/>
   <path id="path4888" d="m582.86 684.29 74.286 101.43 75.714-77.143z"/>
   <path id="path4890" d="m564.29 734.29 92.857 51.429-74.286-101.43z"/>
   <path id="path4892" d="m130 795.71 84.29-47.14-104.29 24.29z"/>
   <path id="path4894" d="m732.86 708.57 152.86 72.857v-132.86z"/>
   <path id="path4896" d="m732.86 708.57 135.71 88.571 17.143-15.714z"/>
   <path id="path4902" d="m347.14 734.29 107.15 17.14-35.72-41.43z"/>
   <path id="path4904" d="m771.43 845.71 97.14-48.57-135.71-88.57z"/>
   <path id="path4906" d="m214.29 748.57 94.286 104.29 38.571-118.57z"/>
   <path id="path4908" d="m657.14 785.71 114.29 60-38.571-137.14z"/>
   <path id="path4910" d="m541.43 751.43 115.71 34.286-92.857-51.429z"/>
   <path id="path4916" d="m541.43 845.71 115.71-60-115.71-34.286z"/>
   <path id="path4918" d="m347.14 734.29 108.57 115.71-1.42-98.57z"/>
   <path id="path4920" d="m308.57 852.86 147.14-2.86-108.57-115.71z"/>
   <path id="path4922" d="m771.43 845.71 115.71-25.71-18.57-22.86z"/>
   <path id="path4924" d="m675.71 915.71 95.714-70-114.29-60z"/>
   <path id="path4926" d="m130 795.71 80 124.29 4.29-171.43z"/>
   <path id="path4928" d="m210 920 98.57-67.14-94.28-104.29z"/>
   <path id="path4930" d="m112.86 815.71 97.14 104.29-80-124.29z"/>
   <path id="path4932" d="m541.43 845.71 134.29 70-18.571-130z"/>
   <path id="path4936" d="m455.71 925.71 85.714-80l-85.71 4.29z"/>
   <path id="path4938" d="m112.86 935.71 97.14-15.71-97.14-104.29z"/>
   <path id="path4940" d="m771.43 845.71 115.71 94.29v-120z"/>
   <path id="path4942" d="m308.57 852.86 147.14 72.857v-75.714z"/>
   <path id="path4944" d="m155.71 978.57 54.29-58.57-97.14 15.71z"/>
   <path id="path4946" d="m541.43 845.71 67.143 132.86 67.143-62.857z"/>
   <path id="path4948" d="m740 980 31.429-134.29-95.714 70z"/>
   <path id="path4950" d="m210 920 82.857 58.571 15.714-125.71z"/>
   <path id="path4952" d="m771.43 845.71 75.714 132.86 40-38.571z"/>
   <path id="path4954" d="m740 980 107.14-1.43-75.71-132.86z"/>
   <path id="path4956" d="m455.71 925.71 152.86 52.86-67.14-132.86z"/>
   <path id="path4958" d="m292.86 978.57 162.85-52.86-147.14-72.85z"/>
   <path id="path4960" d="m292.86 978.57 147.14 1.43 15.71-54.29z"/>
   <path id="path4962" d="m608.57 978.57 131.43 1.43-64.29-64.29z"/>
   <path id="path4964" d="m155.71 978.57h137.14l-82.85-58.57z"/>
   <path id="path4966" d="m440 980 168.57-1.43-152.86-52.86z"/>
   <path id="path4980" d="m440 980h300l-131.43-1.4286z"/>
   <path id="path4982" d="m155.71 978.57 284.29 1.43-147.14-1.43z"/>
  </g>
  <g id="g5378">
   <path id="path5380" stroke-linejoin="bevel" d="m791.43 447.14v-184.28l-54.29 95.71z" stroke="#86e2f9" stroke-width="5" fill="none"/>
  </g>
  <g id="g5756">
   <path id="path5758" stroke-linejoin="bevel" d="m208.57 264.29l-1.43 182.85 42.86-102.85z" stroke="#86e2f9" stroke-width="5" fill="none"/>
  </g>
  <g id="g6138">
   <path id="path6140" stroke-linejoin="bevel" d="m498.57 520l175.72-75.71-345.72-1.43z" stroke="#86e2f9" stroke-width="5" fill="none"/>
  </g>
 </g>
</svg>
