<?xml version="1.0" encoding="UTF-8" standalone="no"?>
<!-- Created with Inkscape (http://www.inkscape.org/) -->
<svg id="svg2" xmlns:rdf="http://www.w3.org/1999/02/22-rdf-syntax-ns#" xmlns="http://www.w3.org/2000/svg" height="1e3" width="1e3" version="1.1" xmlns:cc="http://creativecommons.org/ns#" xmlns:dc="http://purl.org/dc/elements/1.1/" viewBox="0 0 1000 1000">
 <metadata id="metadata7">
  <rdf:RDF>
   <cc:Work rdf:about="">
    <dc:format>image/svg+xml</dc:format>
    <dc:type rdf:resource="http://purl.org/dc/dcmitype/StillImage"/>
    <dc:title/>
   </cc:Work>
  </rdf:RDF>
 </metadata>
 <g id="layer1" transform="translate(0 -52.362)">
  <g id="g4502" stroke-linejoin="bevel" transform="matrix(.95099 0 0 .95099 24.505 64.688)" stroke="#ef6c00" stroke-width="4.3255" fill="none">
   <g id="g3614" transform="matrix(1.2155 0 0 1.2155 -111.27 -110.51)">
    <path id="path3616" d="m314.29 190.93 108.57 72.857 80-124.29z"/>
    <path id="path3618" d="m595.71 266.65 97.143-75.714-190-51.429z"/>
    <path id="path3620" d="m422.86 263.79 172.86 2.8572-92.857-127.14z"/>
    <path id="path3622" d="m214.29 263.79 75.71 72.86 24.29-145.72z"/>
    <path id="path3624" d="m692.86 190.93 22.857 145.71 72.857-74.286z"/>
    <path id="path3626" d="m595.71 266.65 120 70-22.857-145.71z"/>
    <path id="path3628" d="m290 336.65 132.86-72.86-108.57-72.86z"/>
    <path id="path3630" d="m715.71 336.65 144.29 22.85-71.43-97.14z"/>
    <path id="path3632" d="m142.86 363.79 147.14-27.14-75.71-72.86z"/>
    <path id="path3634" d="m142.86 363.79 78.57 71.43 68.57-98.57z"/>
    <path id="path3636" d="m715.71 336.65 72.86 108.57 71.43-85.72z"/>
    <path id="path3638" d="m788.57 445.22 114.29 100l-42.86-185.72z"/>
    <path id="path3640" d="m102.86 548.08 118.57-112.86-78.57-71.43z"/>
    <path id="path3652" d="m807.14 573.79 95.714-28.571-114.29-100z"/>
    <path id="path3656" d="m102.86 548.08 94.286 32.857 24.286-145.71z"/>
    <path id="path3666" d="m807.14 573.79 87.143 162.86 8.5714-191.43z"/>
    <path id="path3668" d="m111.43 738.08 85.71-157.15-94.28-32.85z"/>
    <path id="path3670" d="m238.57 552.36 74.286 185.71 1.4286-187.14z"/>
    <path id="path3672" d="m695.71 738.08 71.43-188.58-72.85 1.43z"/>
    <path id="path3674" d="m197.14 580.93 115.71 157.14-74.286-185.71z"/>
    <path id="path3676" d="m695.71 738.08 111.43-164.29-40-24.286z"/>
    <path id="path3678" d="m838.57 753.79 55.714-17.143-87.143-162.86z"/>
    <path id="path3680" d="m111.43 738.08 60 17.143 25.714-174.29z"/>
    <path id="path3682" d="m695.71 738.08 142.86 15.714-31.429-180z"/>
    <path id="path3684" d="m171.43 755.22 141.43-17.14-115.72-157.15z"/>
    <path id="path3686" d="m111.43 738.08 57.143 62.857 2.8571-45.714z"/>
    <path id="path3688" d="m837.14 818.08 57.143-81.429-55.714 17.143z"/>
    <path id="path3694" d="m168.57 800.93 144.29-62.85-141.43 17.14z"/>
    <path id="path3696" d="m695.71 738.08 141.43 80 1.4285-64.286z"/>
    <path id="path3698" d="m197.14 853.79 115.72-115.71-144.29 62.85z"/>
    <path id="path3700" d="m695.71 738.08 118.57 120 22.857-40z"/>
    <path id="path3702" d="m695.71 738.08 62.857 144.29 55.714-24.286z"/>
    <path id="path3704" d="m241.43 883.79 71.43-145.71-115.72 115.71z"/>
    <path id="path3706" d="m698.57 880.93 60 1.4286-62.857-144.29z"/>
    <path id="path3708" d="m241.43 883.79h71.429v-145.71z"/>
   </g>
   <g id="g4372" transform="matrix(1.2155 0 0 1.2155 -114.12 -110.51)">
    <path id="path4374" d="m655 561.65 29.286-1.4286-15-11.429z"/>
    <path id="path4376" d="m327.14 582.72 27.143 1.0714l-14.28-31.43z"/>
    <path id="path4380" d="m655 613.79 29.29-53.57-29.29 1.43z"/>
    <path id="path4384" d="m326.79 675.58 27.5-91.786-27.143-1.0714z"/>
    <path id="path4386" d="m683.57 680.22 0.7143-120l-29.28 53.57z"/>
    <path id="path4390" d="m655 613.79 0.71429 164.29 27.857-97.857z"/>
    <path id="path4392" d="m354.29 767.72v-183.93l-27.5 91.786z"/>
    <path id="path4398" d="m655.71 778.08-1.1354 91.448 29.294-12.122z"/>
    <path id="path4400" d="m326.07 872 27.143 1.7857 1.0714-106.07z"/>
    <path id="path4402" d="m654.58 869.52 18.183 14.142 11.112-26.264z"/>
    <path id="path4404" d="m326.07 872 13.93 14.29l13.214-12.5z"/>
    <path id="path4406" d="m683.87 857.4-0.3-177.18-27.86 97.86z"/>
    <path id="path4408" d="m326.79 675.58-0.72 196.42 28.22-104.28z"/>
    <path id="path4418" d="m683.87 857.4 0.41242-297.18-0.7143 120z"/>
   </g>
  </g>
 </g>
</svg>
