<?xml version="1.0" encoding="UTF-8" standalone="no"?>
<!-- Created with Inkscape (http://www.inkscape.org/) -->
<svg id="svg5897" xmlns:rdf="http://www.w3.org/1999/02/22-rdf-syntax-ns#" xmlns="http://www.w3.org/2000/svg" viewBox="0 0 999.99999 1000" height="1e3" width="1e3" version="1.1" xmlns:cc="http://creativecommons.org/ns#" xmlns:dc="http://purl.org/dc/elements/1.1/">
 <metadata id="metadata5902">
  <rdf:RDF>
   <cc:Work rdf:about="">
    <dc:format>image/svg+xml</dc:format>
    <dc:type rdf:resource="http://purl.org/dc/dcmitype/StillImage"/>
    <dc:title/>
   </cc:Work>
  </rdf:RDF>
 </metadata>
 <g id="layer1" transform="translate(0 -52.362)" stroke-width="5">
  <g stroke-linejoin="bevel">
   <g id="g7274" stroke="#000" fill="none">
    <path id="path7276" d="m832.14 750.22l-334.13-527.19 235.56 504.33z"/>
    <path id="path7278" d="m438.81 260.12 295.36 468.21-235.57-504.34z"/>
   </g>
   <g id="g7370" stroke="#505050" fill="none">
    <path id="path7372" d="m376.07 299.5 357.5 427.86-294.62-467.11z"/>
    <path id="path7374" d="m376.07 299.5l333.93 526.43 23.57-98.57z"/>
   </g>
   <g id="g7472" stroke="#787878" fill="none">
    <path id="path7474" d="m607.86 811.65l102.14 14.28-333.93-526.43z"/>
    <path id="path7476" d="m309.64 342.36l298.22 469.29-231.79-512.15z"/>
   </g>
   <g id="g7579" stroke="#a0a0a0" fill="none">
    <path id="path7581" d="m254.05 376.07l353.81 435.58-298.22-469.29z"/>
    <path id="path7583" d="m254.05 376.07l334.52 530.58 19.29-95z"/>
   </g>
   <g id="g7933" stroke="#d0706a" fill="none">
    <path id="path7935" d="m316.18 283.13l42.42-226.27-145.46 72.22z"/>
    <path id="path7937" d="m316.18 283.13l78.79-218.19-36.37-8.083z"/>
    <path id="path7939" d="m316.18 283.13l156.57-100-77.78-118.19z"/>
    <path id="path7941" d="m151.52 213.43l164.66 69.7-103.04-154.05z"/>
    <path id="path7943" d="m229.81 337.17l86.37-54.04-164.66-69.7z"/>
   </g>
   <g id="g8019" stroke="#f5d17f">
    <g id="g6802">
     <path id="path6804" stroke-linejoin="bevel" d="m733.57 727.36l108.57 203.57-10-180.71z" stroke="#f5d17f" stroke-width="5" fill="none"/>
    </g>
    <g id="g8009">
     <g id="g6886">
      <path id="path6888" stroke-linejoin="bevel" d="m710 825.93l132.14 105-108.57-203.57z" stroke="#f5d17f" stroke-width="5" fill="none"/>
     </g>
     <g id="g6968" fill="none">
      <path id="path6970" d="m710 825.93l80.71 135 51.43-30z"/>
      <path id="path6972" d="m607.86 811.65l182.85 149.28-80.71-135z"/>
     </g>
     <g id="g7052" fill="none">
      <path id="path7054" d="m588.57 906.65l202.14 54.28-182.85-149.28z"/>
      <path id="path7056" d="m588.57 906.65l157.14 85 45-30.72z"/>
     </g>
    </g>
   </g>
  </g>
  <g fill="none">
   <g id="g6635" stroke="#000">
    <path id="path6637" d="m790.71 960.93l58.58 85.67-7.15-115.67z"/>
    <path id="path6639" d="m745.71 991.65l103.58 54.95-58.58-85.67z"/>
   </g>
   <g id="g7691" stroke-linejoin="bevel" stroke="#dcdcdc">
    <path id="path7693" d="m239.91 355.36l258.1-132.33-13.64-23.74z"/>
    <path id="path7695" d="m254.05 376.07l243.96-153.04-258.1 132.33z"/>
   </g>
   <g id="g7809" stroke-linejoin="bevel" stroke="#000">
    <path id="path7811" d="m229.81 337.17l254.56-137.88-11.62-16.16z"/>
    <path id="path7813" d="m239.91 355.36l244.46-156.07-254.56 137.88z"/>
   </g>
  </g>
 </g>
</svg>
