<?xml version="1.0" encoding="UTF-8" standalone="no"?>
<!-- Created with Inkscape (http://www.inkscape.org/) -->
<svg id="svg2" xmlns:rdf="http://www.w3.org/1999/02/22-rdf-syntax-ns#" xmlns="http://www.w3.org/2000/svg" height="1e3" width="1e3" version="1.1" xmlns:cc="http://creativecommons.org/ns#" xmlns:dc="http://purl.org/dc/elements/1.1/">
 <metadata id="metadata7">
  <rdf:RDF>
   <cc:Work rdf:about="">
    <dc:format>image/svg+xml</dc:format>
    <dc:type rdf:resource="http://purl.org/dc/dcmitype/StillImage"/>
    <dc:title/>
   </cc:Work>
  </rdf:RDF>
 </metadata>
 <g id="layer2" stroke-linejoin="bevel" stroke-width="5">
  <g id="g5268" stroke="#262626">
   <g id="g4930">
    <g id="g4458" fill="none">
     <path id="path4460" d="m188.08 47.17h162.21 149.65z"/>
     <path id="path4462" d="m424.95 146.95l74.99-99.78h-149.65z"/>
     <path id="path4464" d="m575.79 146.95l86.88-99.78h-162.73z"/>
     <path id="path4466" d="m719.5 146.95l83.02-99.78h-139.85z"/>
     <path id="path4468" d="m188.08 47.17l105.17 99.78 57.04-99.78z"/>
     <path id="path4470" d="m851.2 146.95l98.71-99.78h-147.39z"/>
     <path id="path4472" d="m49.994 47.17l99.546 99.78 38.54-99.78z"/>
     <path id="path4474" d="m719.5 146.95h131.7l-48.68-99.78z"/>
     <path id="path4476" d="m293.25 146.95h131.7l-74.66-99.78z"/>
     <path id="path4478" d="m149.54 146.95h143.71l-105.17-99.78z"/>
     <path id="path4480" d="m575.79 146.95h143.71l-56.83-99.78z"/>
     <path id="path4482" d="m851.2 146.95l98.89 49.45-0.18-149.23z"/>
     <path id="path4484" d="m49.994 196.4l99.546-49.45-99.546-99.78z"/>
     <path id="path4486" d="m424.95 146.95h150.84l-75.85-99.78z"/>
     <path id="path4488" d="m851.2 196.4h98.89l-98.89-49.45z"/>
     <path id="path4490" d="m49.994 196.4h99.666l-0.12-49.45z"/>
     <path id="path4496" d="m499.94 270.02l75.85-123.07h-150.84z"/>
     <path id="path4506" d="m424.95 422.29h150.84l-75.85-152.27z"/>
     <path id="path4516" d="m499.94 709.8l75.85-136.79h-150.84z"/>
     <path id="path4534" d="m424.95 847.97h150.84l-75.85-138.17z"/>
     <path id="path4540" d="m499.94 946.4l75.85-98.43h-150.84z"/>
     <path id="path4542" d="m300.83 847.97l93.35 98.43 30.77-98.43z"/>
     <path id="path4544" d="m605.36 946.4l93.81-98.43h-123.38z"/>
     <path id="path4546" d="m300.83 946.4h93.35l-93.35-98.43z"/>
     <path id="path4548" d="m605.36 946.4h93.81v-98.43z"/>
     <path id="path4550" d="m499.94 946.4h105.42l-29.57-98.43z"/>
     <path id="path4552" d="m394.18 946.4h105.76l-74.99-98.43z"/>
    </g>
    <g id="g4714">
     <path id="path4716" stroke-linejoin="bevel" d="m575.79 422.29v-275.34l-75.85 123.07z" stroke="#262626" stroke-width="5" fill="none"/>
    </g>
    <g id="g4856">
     <path id="path4858" stroke-linejoin="bevel" d="m424.95 146.95v275.34l74.99-152.27z" stroke="#262626" stroke-width="5" fill="none"/>
    </g>
   </g>
   <g id="g5037">
    <path id="path5039" stroke-linejoin="bevel" d="m575.79 847.97v-274.96l-75.85 136.79z" stroke="#262626" stroke-width="5" fill="none"/>
   </g>
   <g id="g5189">
    <path id="path5191" stroke-linejoin="bevel" d="m424.95 573.01v274.96l74.99-138.17z" stroke="#262626" stroke-width="5" fill="none"/>
   </g>
  </g>
  <g id="g5633" stroke="#8c8c8c" fill="none">
   <path id="path5637" d="m601.2 174.21l99.35 96.12 12.25-96.12z"/>
   <path id="path5639" d="m299.91 270.33l100.27-96.12h-112.75z"/>
   <path id="path5641" d="m601.2 270.33h99.35l-99.35-96.12z"/>
   <path id="path5643" d="m299.91 270.33h100.27v-96.12z"/>
   <path id="path5645" d="m174.68 266.73l112.75-92.52h-112.75z"/>
   <path id="path5647" d="m174.68 266.73l125.23 3.6-12.48-96.12z"/>
   <path id="path5649" d="m700.55 270.33l123.85-96.12h-111.6z"/>
   <path id="path5651" d="m700.55 270.33l123.85 27.6v-123.72z"/>
   <path id="path5657" d="m174.68 359.25l125.23-88.92-125.23-3.6z"/>
   <path id="path5661" d="m700.55 372l123.85-74.07-123.85-27.6z"/>
   <path id="path5663" d="m700.55 372l123.85 49.64v-123.71z"/>
   <path id="path5669" d="m174.68 359.25l125.23 88.07v-176.99z"/>
   <path id="path5679" d="m174.68 451.77l125.23-4.45-125.23-88.07z"/>
   <path id="path5681" d="m748.28 498.75l76.12-77.11-123.85-49.64z"/>
   <path id="path5683" d="m625.23 447.32l123.05 51.43-47.73-126.75z"/>
   <path id="path5685" d="m408.35 447.32l54.22 100.45 54.22-100.45z"/>
   <path id="path5687" d="m625.23 547.77l123.05-49.02-123.05-51.43z"/>
   <path id="path5689" d="m299.91 547.77l108.44-100.45h-108.44z"/>
   <path id="path5691" d="m516.79 447.32l108.44 100.45v-100.45z"/>
   <path id="path5695" d="m174.68 451.77l125.23 96v-100.45z"/>
   <path id="path5697" d="m174.68 544.29l125.23 3.48-125.23-96z"/>
   <path id="path5699" d="m462.57 547.77h162.66l-108.44-100.45z"/>
   <path id="path5701" d="m299.91 547.77h162.66l-54.22-100.45z"/>
   <path id="path5703" d="m625.23 547.77l75.32 75.15 47.73-124.17z"/>
   <path id="path5705" d="m700.55 622.92l123.85-50.97-76.12-73.2z"/>
   <path id="path5707" d="m174.68 636.81l125.23-89.04-125.23-3.48z"/>
   <path id="path5709" d="m700.55 622.92l123.85 73.98v-124.95z"/>
   <path id="path5715" d="m174.68 636.81l125.23 86.43v-175.47z"/>
   <path id="path5723" d="m700.55 723.24l123.85-26.34-123.85-73.98z"/>
   <path id="path5725" d="m174.68 729.33l125.23-6.09-125.23-86.43z"/>
   <path id="path5729" d="m174.68 729.33l112.75 92.52 12.48-98.61z"/>
   <path id="path5731" d="m700.55 723.24l123.85 98.61v-124.95z"/>
   <path id="path5733" d="m602.54 821.85l98.01-98.61h-99.35z"/>
   <path id="path5735" d="m299.91 723.24l100.27 98.61v-98.61z"/>
   <path id="path5737" d="m713.47 821.85h110.93l-123.85-98.61z"/>
   <path id="path5739" d="m174.68 821.85h112.75l-112.75-92.52z"/>
   <path id="path5741" d="m602.54 821.85h110.93l-12.92-98.61z"/>
   <path id="path5743" d="m287.43 821.85h112.75l-100.27-98.61z"/>
   <path id="path5749" d="m174.68 821.85h225.5-112.75z"/>
  </g>
 </g>
</svg>
