<?xml version="1.0" encoding="UTF-8" standalone="no"?>
<!-- Created with Inkscape (http://www.inkscape.org/) -->
<svg id="svg5355" xmlns:rdf="http://www.w3.org/1999/02/22-rdf-syntax-ns#" xmlns="http://www.w3.org/2000/svg" viewBox="0 0 1000 1000" height="1e3" width="1e3" version="1.1" xmlns:cc="http://creativecommons.org/ns#" xmlns:dc="http://purl.org/dc/elements/1.1/">
 <metadata id="metadata5360">
  <rdf:RDF>
   <cc:Work rdf:about="">
    <dc:format>image/svg+xml</dc:format>
    <dc:type rdf:resource="http://purl.org/dc/dcmitype/StillImage"/>
    <dc:title/>
   </cc:Work>
  </rdf:RDF>
 </metadata>
 <g id="layer4">
  <g id="g6797" stroke-linejoin="bevel" transform="translate(-25.403 -30.437)" stroke="#6545a0" stroke-width="5">
   <g id="g5949" fill="none">
    <path id="path5951" d="m337.39 236.32 135.36-38.38-167.68 6.06z"/>
    <path id="path5953" d="m547.5 262.59 74.75-62.63-149.5-2.02z"/>
    <path id="path5955" d="m337.39 236.32 80.812 26.264 54.548-64.65z"/>
    <path id="path5957" d="m692.96 274.71 92.94-64.65-163.65-10.1z"/>
    <path id="path5959" d="m167.69 220.16 96.975 54.548 40.406-70.711z"/>
    <path id="path5961" d="m264.66 274.71 72.731-38.386-32.325-32.325z"/>
    <path id="path5963" d="m692.96 274.71 78.792 20.203 14.142-84.853z"/>
    <path id="path5965" d="m189.91 296.93 74.751-22.223-96.975-54.548z"/>
    <path id="path5967" d="m111.12 244.41 78.792 52.528-22.223-76.772z"/>
    <path id="path5969" d="m868.73 309.06 70.711-56.569-54.548-30.305z"/>
    <path id="path5971" d="m785.9 210.06 82.833 98.995 16.162-86.873z"/>
    <path id="path5973" d="m771.76 294.91 96.975 14.142-82.833-98.995z"/>
    <path id="path5975" d="m418.2 262.59h129.3l-74.751-64.65z"/>
    <path id="path5977" d="m547.5 262.59 145.46 12.122-70.711-74.751z"/>
    <path id="path5979" d="m84.853 323.2 105.06-26.27-78.79-52.52z"/>
    <path id="path5981" d="m115.16 373.71 74.75-76.78-105.06 26.27z"/>
    <path id="path5983" d="m791.96 379.77 76.77-70.71-96.97-14.15z"/>
    <path id="path5985" d="m791.96 379.77 54.548-2.0203 22.223-68.69z"/>
    <path id="path5987" d="m115.16 373.71 52.528 12.122 22.223-88.893z"/>
    <path id="path5989" d="m868.73 309.06 94.954 84.853-24.244-141.42z"/>
    <path id="path5991" d="m846.51 377.75 117.18 16.16-94.96-84.85z"/>
    <path id="path5993" d="m905.1 428.25 58.59-34.34-117.18-16.16z"/>
    <path id="path5999" d="m264.66 274.71 153.54-12.122-80.812-26.264z"/>
    <path id="path6001" d="m84.853 323.2-6.061 127.28 36.368-76.77z"/>
    <path id="path6003" d="m800.04 476.74 46.467-98.995-54.548 2.0203z"/>
    <path id="path6005" d="m842.47 482.8 62.629-54.548-58.589-50.508z"/>
    <path id="path6007" d="m78.792 450.48 88.898-64.65-52.53-12.12z"/>
    <path id="path6009" d="m800.04 476.74 42.426 6.0609 4.0406-105.06z"/>
    <path id="path6011" d="m78.792 450.48 82.832 70.711 6.0609-135.36z"/>
    <path id="path6013" d="m842.47 482.8 76.772 40.406-14.142-94.954z"/>
    <path id="path6015" d="m919.24 523.21 44.447-129.3-58.589 34.345z"/>
    <path id="path6017" d="m971.77 547.45-8.08-153.54-44.45 129.3z"/>
    <path id="path6019" d="m868.73 557.55 50.508-34.345-76.772-40.406z"/>
    <path id="path6021" d="m78.792 557.55 82.828-36.36-82.828-70.71z"/>
    <path id="path6023" d="m836.41 569.67 32.32-12.12-26.26-74.75z"/>
    <path id="path6025" d="m800.04 476.74 36.365 92.934 6.0609-86.873z"/>
    <path id="path6027" d="m796 581.8 40.406-12.122-36.365-92.934z"/>
    <path id="path6029" d="m903.08 589.88 16.162-66.67-50.508 34.345z"/>
    <path id="path6031" d="m903.08 589.88 68.69-42.426-52.528-24.244z"/>
    <path id="path6033" d="m796 581.8 32.325 26.264 8.0812-38.386z"/>
    <path id="path6037" d="m127.28 626.24 34.34-105.05-82.828 36.36z"/>
    <path id="path6051" d="m903.08 589.88 60.609 62.629 8.0812-105.06z"/>
    <path id="path6053" d="m895 624.22 68.69 28.284-60.609-62.629z"/>
    <path id="path6055" d="m828.33 608.06 26.264 46.467 8.0812-20.203z"/>
    <path id="path6057" d="m862.67 634.32 28.284 32.325 4.0406-42.426z"/>
    <path id="path6059" d="m828.33 608.06 2.0203 60.609 24.244-14.142z"/>
    <path id="path6063" d="m854.59 654.53 36.365 12.122-28.284-32.325z"/>
    <path id="path6065" d="m78.792 557.55 6.0609 125.26 42.426-56.569z"/>
    <path id="path6067" d="m890.95 666.65 72.731-14.142-68.69-28.284z"/>
    <path id="path6069" d="m785.9 688.87 44.447-20.203-2.0203-60.609z"/>
    <path id="path6071" d="m796 581.8-10.102 107.08 42.426-80.812z"/>
    <path id="path6073" d="m173.75 680.79-12.13-159.6-34.34 105.05z"/>
    <path id="path6075" d="m785.9 688.87 36.365 10.102 8.0812-30.305z"/>
    <path id="path6077" d="m84.853 682.81 88.893-2.0203-46.467-54.548z"/>
    <path id="path6079" d="m899.04 703.02 64.65-50.508-72.731 14.142z"/>
    <path id="path6107" d="m759.63 737.36 62.629-38.386-36.365-10.102z"/>
    <path id="path6115" d="m759.63 737.36 74.76-14.14-12.13-24.25z"/>
    <path id="path6117" d="m107.08 773.73 66.67-92.934-88.893 2.0203z"/>
    <path id="path6119" d="m935.4 779.79 28.284-127.28-64.65 50.508z"/>
    <path id="path6121" d="m872.77 727.26 62.629 52.528-36.365-76.772z"/>
    <path id="path6123" d="m107.08 773.73 94.954-38.386-28.284-54.548z"/>
    <path id="path6125" d="m872.77 727.26 24.244 78.792 38.386-26.264z"/>
    <path id="path6127" d="m153.54 810.09 48.487-74.751-94.954 38.386z"/>
    <path id="path6129" d="m202.03 735.34 68.69 74.751 46.467-58.589z"/>
    <path id="path6131" d="m834.39 723.22 20.203 92.934 18.183-88.893z"/>
    <path id="path6133" d="m854.59 816.15 42.426-10.102-24.244-78.792z"/>
    <path id="path6135" d="m668.72 808.07 90.91-70.71-113.13 14.14z"/>
    <path id="path6137" d="m153.54 810.09 48.487 6.0609v-80.812z"/>
    <path id="path6139" d="m793.98 824.23 40.41-101.01-74.76 14.14z"/>
    <path id="path6141" d="m202.03 816.15 68.69-6.0609-68.69-74.751z"/>
    <path id="path6143" d="m793.98 824.23 60.609-8.0812-20.203-92.934z"/>
    <path id="path6145" d="m317.19 751.5 68.69 88.893 58.589-82.832z"/>
    <path id="path6147" d="m793.98 824.23 46.467 32.325 14.142-40.406z"/>
    <path id="path6149" d="m216.17 856.56 54.548-46.467-68.69 6.0609z"/>
    <path id="path6151" d="m668.72 808.07 125.26 16.16-34.35-86.87z"/>
    <path id="path6153" d="m301.03 860.6 16.16-109.1-46.47 58.59z"/>
    <path id="path6155" d="m464.67 862.62 74.751-105.06h-94.954z"/>
    <path id="path6157" d="m301.03 860.6 84.85-20.2-68.69-88.9z"/>
    <path id="path6159" d="m385.88 840.4 78.792 22.223-20.203-105.06z"/>
    <path id="path6161" d="m539.42 757.56 129.3 50.51-22.22-56.57z"/>
    <path id="path6163" d="m539.42 757.56 105.06 103.04 24.244-52.528z"/>
    <path id="path6169" d="m216.17 856.56 84.853 4.0406-30.305-50.508z"/>
    <path id="path6171" d="m464.67 862.62 179.81-2.02-105.06-103.04z"/>
    <path id="path6173" d="m644.48 860.6 149.5-36.37-125.26-16.16z"/>
    <path id="path6175" d="m644.48 860.6 195.97-4.04-46.47-32.33z"/>
    <path id="path6177" d="m301.03 860.6 163.64 2.0203-78.792-22.223z"/>
   </g>
   <g id="g6694">
    <path id="path6696" stroke-linejoin="bevel" d="m318.57 665 345-157.5-345-157.5z" stroke="#6545a0" stroke-width="5" fill="none"/>
   </g>
  </g>
 </g>
</svg>
