<?xml version="1.0" encoding="UTF-8" standalone="no"?>
<!-- Created with Inkscape (http://www.inkscape.org/) -->
<svg id="svg8761" xmlns:rdf="http://www.w3.org/1999/02/22-rdf-syntax-ns#" xmlns="http://www.w3.org/2000/svg" viewBox="0 0 1000 1000" height="1e3" width="1e3" version="1.1" xmlns:cc="http://creativecommons.org/ns#" xmlns:dc="http://purl.org/dc/elements/1.1/">
 <metadata id="metadata8766">
  <rdf:RDF>
   <cc:Work rdf:about="">
    <dc:format>image/svg+xml</dc:format>
    <dc:type rdf:resource="http://purl.org/dc/dcmitype/StillImage"/>
    <dc:title/>
   </cc:Work>
  </rdf:RDF>
 </metadata>
 <g id="layer2" stroke="#596aaf" stroke-width="5">
  <g id="g10128" fill="none">
   <path id="path10130" d="m600.03 161.57 107.08-66.667-200.01-48.487z"/>
   <path id="path10132" d="m286.88 96.924 117.18 64.646 103.04-115.15z"/>
   <path id="path10134" d="m505.08 143.39 94.95 18.18-92.93-115.15z"/>
   <path id="path10136" d="m404.06 161.57 101.02-18.183 2.0203-96.975z"/>
   <path id="path10138" d="m600.03 161.57 94.954 40.406 12.122-107.08z"/>
   <path id="path10140" d="m313.15 206.02 90.91-44.45-117.18-64.646z"/>
   <path id="path10142" d="m694.98 201.98 175.77 36.36-163.64-143.44z"/>
   <path id="path10144" d="m127.28 244.41 185.87-38.39-26.27-109.1z"/>
   <path id="path10146" d="m783.88 288.85 86.873-50.508-175.77-36.366z"/>
   <path id="path10148" d="m127.28 244.41 90.914 44.447 94.954-82.833z"/>
   <path id="path10150" d="m371.74 339.36 32.32-177.79-90.91 44.45z"/>
   <path id="path10152" d="m600.03 161.57 22.223 193.95 72.731-153.54z"/>
   <path id="path10160" d="m371.74 339.36 131.32 38.39-99-216.18z"/>
   <path id="path10162" d="m503.06 377.75 119.2-22.223-22.223-193.95z"/>
   <path id="path10166" d="m842.47 410.07 28.284-171.73-86.873 50.508z"/>
   <path id="path10168" d="m127.28 244.41 30.3 169.7 60.61-125.26z"/>
   <path id="path10170" d="m56.569 395.93 101.01 18.18-30.3-169.7z"/>
   <path id="path10172" d="m842.47 410.07 107.07 24.24-78.79-195.97z"/>
   <path id="path10176" d="m709.13 458.56 133.34-48.49-58.59-121.22z"/>
   <path id="path10180" d="m157.58 414.11 141.43 60.61-80.82-185.87z"/>
   <path id="path10182" d="m371.74 339.36 68.185 152.03 63.135-113.64z"/>
   <path id="path10184" d="m559.37 492.15 62.882-136.62-119.2 22.223z"/>
   <path id="path10188" d="m439.92 491.39 119.45 0.75763-56.316-114.4z"/>
   <path id="path10192" d="m856.61 525.23 92.93-90.92-107.07-24.24z"/>
   <path id="path10194" d="m56.569 395.93 90.911 127.28 10.1-109.1z"/>
   <path id="path10212" d="m440.43 513.11 60.609 115.16 58.589-117.18z"/>
   <path id="path10222" d="m56.569 395.93 12.121 248.5 78.79-121.22z"/>
   <path id="path10224" d="m626.29 650.49 123.24-30.31-40.4-161.62z"/>
   <path id="path10226" d="m254.56 624.22 123.24 24.244-78.792-173.75z"/>
   <path id="path10228" d="m68.69 644.43 109.1-6.06-30.31-115.16z"/>
   <path id="path10230" d="m927.32 658.57 22.22-224.26-92.93 90.92z"/>
   <path id="path10232" d="m830.35 640.39 96.975 18.183-70.711-133.34z"/>
   <path id="path10234" d="m377.8 648.47 123.24-20.21-60.61-115.15z"/>
   <path id="path10236" d="m501.04 628.26 125.25 22.23-66.67-139.4z"/>
   <path id="path10246" d="m68.69 644.43 84.853 151.52 24.244-157.58z"/>
   <path id="path10248" d="m153.54 795.95 101.02-44.45-76.77-113.13z"/>
   <path id="path10254" d="m822.26 820.19 8.09-179.8-66.67 98.99z"/>
   <path id="path10256" d="m822.26 820.19 105.06-161.62-96.97-18.18z"/>
   <path id="path10258" d="m626.29 650.49-28.284 185.87 64.65-26.264z"/>
   <path id="path10260" d="m339.41 816.15 64.65 22.23-26.26-189.91z"/>
   <path id="path10262" d="m501.04 628.26 96.975 208.09 28.284-185.87z"/>
   <path id="path10264" d="m404.06 838.38 96.98-210.12-123.24 20.21z"/>
   <path id="path10270" d="m662.66 810.09 159.6 10.102-58.589-80.812z"/>
   <path id="path10272" d="m699.03 907.07 123.23-86.88-159.6-10.1z"/>
   <path id="path10274" d="m325.27 919.19 78.79-80.81-64.65-22.23z"/>
   <path id="path10276" d="m598.01 836.36 101.02 70.71-36.37-96.98z"/>
   <path id="path10278" d="m254.56 751.5 70.711 167.69 14.142-103.04z"/>
   <path id="path10280" d="m153.54 795.95 171.73 123.24-70.71-167.69z"/>
   <path id="path10282" d="m511.14 955.55 86.87-119.19-96.97 14.14z"/>
   <path id="path10284" d="m404.06 838.38 107.08 117.17-10.1-105.05z"/>
   <path id="path10286" d="m325.27 919.19 185.87 36.36-107.08-117.17z"/>
   <path id="path10288" d="m511.14 955.55 187.89-48.48-101.02-70.71z"/>
  </g>
  <g id="g10538">
   <path id="path10540" d="m749.53 620.18 92.94-210.11-133.34 48.49z" stroke="#596aaf" stroke-width="5" fill="none"/>
  </g>
  <g id="g10772">
   <path id="path10774" d="m662.66 810.09 86.87-189.91-123.24 30.31z" stroke="#596aaf" stroke-width="5" fill="none"/>
  </g>
  <g id="g11004">
   <path id="path11006" d="m157.58 414.11 96.975 210.11 44.447-149.5z" stroke="#596aaf" stroke-width="5" fill="none"/>
  </g>
  <g id="g11234">
   <path id="path11236" d="m254.56 624.22 84.853 191.93 38.386-167.69z" stroke="#596aaf" stroke-width="5" fill="none"/>
  </g>
 </g>
</svg>
